<mxfile host="app.diagrams.net" agent="Mozilla/5.0 (Windows NT 10.0; Win64; x64) AppleWebKit/537.36 (KHTML, like Gecko) Chrome/128.0.0.0 YaBrowser/24.10.0.0 Safari/537.36" version="25.0.3">
  <diagram name="Страница — 1" id="TGCEh2yxvta_5OMEY0MG">
    <mxGraphModel dx="2031" dy="973" grid="1" gridSize="10" guides="1" tooltips="1" connect="1" arrows="1" fold="1" page="1" pageScale="1" pageWidth="827" pageHeight="1169" math="0" shadow="0">
      <root>
        <mxCell id="0" />
        <mxCell id="1" parent="0" />
        <mxCell id="PEr6sbL7nsEstti_IK5p-2" value="" style="shape=table;startSize=0;container=1;collapsible=0;childLayout=tableLayout;fontSize=16;" parent="1" vertex="1">
          <mxGeometry x="156.5" y="1210" width="1390" height="290" as="geometry" />
        </mxCell>
        <mxCell id="PEr6sbL7nsEstti_IK5p-3" value="" style="shape=tableRow;horizontal=0;startSize=0;swimlaneHead=0;swimlaneBody=0;strokeColor=inherit;top=0;left=0;bottom=0;right=0;collapsible=0;dropTarget=0;fillColor=none;points=[[0,0.5],[1,0.5]];portConstraint=eastwest;fontSize=16;" parent="PEr6sbL7nsEstti_IK5p-2" vertex="1">
          <mxGeometry width="1390" height="28" as="geometry" />
        </mxCell>
        <mxCell id="PEr6sbL7nsEstti_IK5p-4" value="№" style="shape=partialRectangle;html=1;whiteSpace=wrap;connectable=0;strokeColor=inherit;overflow=hidden;fillColor=none;top=0;left=0;bottom=0;right=0;pointerEvents=1;fontSize=16;" parent="PEr6sbL7nsEstti_IK5p-3" vertex="1">
          <mxGeometry width="80" height="28" as="geometry">
            <mxRectangle width="80" height="28" as="alternateBounds" />
          </mxGeometry>
        </mxCell>
        <mxCell id="PEr6sbL7nsEstti_IK5p-100" value="Взаимодействие" style="shape=partialRectangle;html=1;whiteSpace=wrap;connectable=0;strokeColor=inherit;overflow=hidden;fillColor=none;top=0;left=0;bottom=0;right=0;pointerEvents=1;fontSize=16;" parent="PEr6sbL7nsEstti_IK5p-3" vertex="1">
          <mxGeometry x="80" width="174" height="28" as="geometry">
            <mxRectangle width="174" height="28" as="alternateBounds" />
          </mxGeometry>
        </mxCell>
        <mxCell id="PEr6sbL7nsEstti_IK5p-5" value="Описание" style="shape=partialRectangle;html=1;whiteSpace=wrap;connectable=0;strokeColor=inherit;overflow=hidden;fillColor=none;top=0;left=0;bottom=0;right=0;pointerEvents=1;fontSize=16;" parent="PEr6sbL7nsEstti_IK5p-3" vertex="1">
          <mxGeometry x="254" width="1136" height="28" as="geometry">
            <mxRectangle width="1136" height="28" as="alternateBounds" />
          </mxGeometry>
        </mxCell>
        <mxCell id="PEr6sbL7nsEstti_IK5p-7" value="" style="shape=tableRow;horizontal=0;startSize=0;swimlaneHead=0;swimlaneBody=0;strokeColor=inherit;top=0;left=0;bottom=0;right=0;collapsible=0;dropTarget=0;fillColor=none;points=[[0,0.5],[1,0.5]];portConstraint=eastwest;fontSize=16;" parent="PEr6sbL7nsEstti_IK5p-2" vertex="1">
          <mxGeometry y="28" width="1390" height="32" as="geometry" />
        </mxCell>
        <mxCell id="PEr6sbL7nsEstti_IK5p-8" value="1" style="shape=partialRectangle;html=1;whiteSpace=wrap;connectable=0;strokeColor=inherit;overflow=hidden;fillColor=none;top=0;left=0;bottom=0;right=0;pointerEvents=1;fontSize=16;" parent="PEr6sbL7nsEstti_IK5p-7" vertex="1">
          <mxGeometry width="80" height="32" as="geometry">
            <mxRectangle width="80" height="32" as="alternateBounds" />
          </mxGeometry>
        </mxCell>
        <mxCell id="PEr6sbL7nsEstti_IK5p-101" value="User -&amp;gt; Frontend" style="shape=partialRectangle;html=1;whiteSpace=wrap;connectable=0;strokeColor=inherit;overflow=hidden;fillColor=none;top=0;left=0;bottom=0;right=0;pointerEvents=1;fontSize=16;" parent="PEr6sbL7nsEstti_IK5p-7" vertex="1">
          <mxGeometry x="80" width="174" height="32" as="geometry">
            <mxRectangle width="174" height="32" as="alternateBounds" />
          </mxGeometry>
        </mxCell>
        <mxCell id="PEr6sbL7nsEstti_IK5p-9" value="Пользователь нажимает кнопку &quot;Расходы&quot;" style="shape=partialRectangle;html=1;whiteSpace=wrap;connectable=0;strokeColor=inherit;overflow=hidden;fillColor=none;top=0;left=0;bottom=0;right=0;pointerEvents=1;fontSize=16;" parent="PEr6sbL7nsEstti_IK5p-7" vertex="1">
          <mxGeometry x="254" width="1136" height="32" as="geometry">
            <mxRectangle width="1136" height="32" as="alternateBounds" />
          </mxGeometry>
        </mxCell>
        <mxCell id="PEr6sbL7nsEstti_IK5p-15" style="shape=tableRow;horizontal=0;startSize=0;swimlaneHead=0;swimlaneBody=0;strokeColor=inherit;top=0;left=0;bottom=0;right=0;collapsible=0;dropTarget=0;fillColor=none;points=[[0,0.5],[1,0.5]];portConstraint=eastwest;fontSize=16;" parent="PEr6sbL7nsEstti_IK5p-2" vertex="1">
          <mxGeometry y="60" width="1390" height="28" as="geometry" />
        </mxCell>
        <mxCell id="PEr6sbL7nsEstti_IK5p-16" value="2" style="shape=partialRectangle;html=1;whiteSpace=wrap;connectable=0;strokeColor=inherit;overflow=hidden;fillColor=none;top=0;left=0;bottom=0;right=0;pointerEvents=1;fontSize=16;" parent="PEr6sbL7nsEstti_IK5p-15" vertex="1">
          <mxGeometry width="80" height="28" as="geometry">
            <mxRectangle width="80" height="28" as="alternateBounds" />
          </mxGeometry>
        </mxCell>
        <mxCell id="PEr6sbL7nsEstti_IK5p-102" value="Frontend -&amp;gt; Backend" style="shape=partialRectangle;html=1;whiteSpace=wrap;connectable=0;strokeColor=inherit;overflow=hidden;fillColor=none;top=0;left=0;bottom=0;right=0;pointerEvents=1;fontSize=16;" parent="PEr6sbL7nsEstti_IK5p-15" vertex="1">
          <mxGeometry x="80" width="174" height="28" as="geometry">
            <mxRectangle width="174" height="28" as="alternateBounds" />
          </mxGeometry>
        </mxCell>
        <mxCell id="PEr6sbL7nsEstti_IK5p-17" value="https-запрос на список расходов и категории расходов" style="shape=partialRectangle;html=1;whiteSpace=wrap;connectable=0;strokeColor=inherit;overflow=hidden;fillColor=none;top=0;left=0;bottom=0;right=0;pointerEvents=1;fontSize=16;" parent="PEr6sbL7nsEstti_IK5p-15" vertex="1">
          <mxGeometry x="254" width="1136" height="28" as="geometry">
            <mxRectangle width="1136" height="28" as="alternateBounds" />
          </mxGeometry>
        </mxCell>
        <mxCell id="PEr6sbL7nsEstti_IK5p-11" value="" style="shape=tableRow;horizontal=0;startSize=0;swimlaneHead=0;swimlaneBody=0;strokeColor=inherit;top=0;left=0;bottom=0;right=0;collapsible=0;dropTarget=0;fillColor=none;points=[[0,0.5],[1,0.5]];portConstraint=eastwest;fontSize=16;" parent="PEr6sbL7nsEstti_IK5p-2" vertex="1">
          <mxGeometry y="88" width="1390" height="29" as="geometry" />
        </mxCell>
        <mxCell id="PEr6sbL7nsEstti_IK5p-12" value="3" style="shape=partialRectangle;html=1;whiteSpace=wrap;connectable=0;strokeColor=inherit;overflow=hidden;fillColor=none;top=0;left=0;bottom=0;right=0;pointerEvents=1;fontSize=16;" parent="PEr6sbL7nsEstti_IK5p-11" vertex="1">
          <mxGeometry width="80" height="29" as="geometry">
            <mxRectangle width="80" height="29" as="alternateBounds" />
          </mxGeometry>
        </mxCell>
        <mxCell id="PEr6sbL7nsEstti_IK5p-103" value="Backend -&amp;gt; DB" style="shape=partialRectangle;html=1;whiteSpace=wrap;connectable=0;strokeColor=inherit;overflow=hidden;fillColor=none;top=0;left=0;bottom=0;right=0;pointerEvents=1;fontSize=16;" parent="PEr6sbL7nsEstti_IK5p-11" vertex="1">
          <mxGeometry x="80" width="174" height="29" as="geometry">
            <mxRectangle width="174" height="29" as="alternateBounds" />
          </mxGeometry>
        </mxCell>
        <mxCell id="PEr6sbL7nsEstti_IK5p-13" value="SQL-запрос на формирование списка расходов" style="shape=partialRectangle;html=1;whiteSpace=wrap;connectable=0;strokeColor=inherit;overflow=hidden;fillColor=none;top=0;left=0;bottom=0;right=0;pointerEvents=1;fontSize=16;" parent="PEr6sbL7nsEstti_IK5p-11" vertex="1">
          <mxGeometry x="254" width="1136" height="29" as="geometry">
            <mxRectangle width="1136" height="29" as="alternateBounds" />
          </mxGeometry>
        </mxCell>
        <mxCell id="PEr6sbL7nsEstti_IK5p-18" style="shape=tableRow;horizontal=0;startSize=0;swimlaneHead=0;swimlaneBody=0;strokeColor=inherit;top=0;left=0;bottom=0;right=0;collapsible=0;dropTarget=0;fillColor=none;points=[[0,0.5],[1,0.5]];portConstraint=eastwest;fontSize=16;" parent="PEr6sbL7nsEstti_IK5p-2" vertex="1">
          <mxGeometry y="117" width="1390" height="28" as="geometry" />
        </mxCell>
        <mxCell id="PEr6sbL7nsEstti_IK5p-19" value="4" style="shape=partialRectangle;html=1;whiteSpace=wrap;connectable=0;strokeColor=inherit;overflow=hidden;fillColor=none;top=0;left=0;bottom=0;right=0;pointerEvents=1;fontSize=16;" parent="PEr6sbL7nsEstti_IK5p-18" vertex="1">
          <mxGeometry width="80" height="28" as="geometry">
            <mxRectangle width="80" height="28" as="alternateBounds" />
          </mxGeometry>
        </mxCell>
        <mxCell id="PEr6sbL7nsEstti_IK5p-104" value="DB --&amp;gt; Backend" style="shape=partialRectangle;html=1;whiteSpace=wrap;connectable=0;strokeColor=inherit;overflow=hidden;fillColor=none;top=0;left=0;bottom=0;right=0;pointerEvents=1;fontSize=16;" parent="PEr6sbL7nsEstti_IK5p-18" vertex="1">
          <mxGeometry x="80" width="174" height="28" as="geometry">
            <mxRectangle width="174" height="28" as="alternateBounds" />
          </mxGeometry>
        </mxCell>
        <mxCell id="PEr6sbL7nsEstti_IK5p-20" value="Возвращает список расходов" style="shape=partialRectangle;html=1;whiteSpace=wrap;connectable=0;strokeColor=inherit;overflow=hidden;fillColor=none;top=0;left=0;bottom=0;right=0;pointerEvents=1;fontSize=16;" parent="PEr6sbL7nsEstti_IK5p-18" vertex="1">
          <mxGeometry x="254" width="1136" height="28" as="geometry">
            <mxRectangle width="1136" height="28" as="alternateBounds" />
          </mxGeometry>
        </mxCell>
        <mxCell id="PEr6sbL7nsEstti_IK5p-21" style="shape=tableRow;horizontal=0;startSize=0;swimlaneHead=0;swimlaneBody=0;strokeColor=inherit;top=0;left=0;bottom=0;right=0;collapsible=0;dropTarget=0;fillColor=none;points=[[0,0.5],[1,0.5]];portConstraint=eastwest;fontSize=16;" parent="PEr6sbL7nsEstti_IK5p-2" vertex="1">
          <mxGeometry y="145" width="1390" height="28" as="geometry" />
        </mxCell>
        <mxCell id="PEr6sbL7nsEstti_IK5p-22" value="5" style="shape=partialRectangle;html=1;whiteSpace=wrap;connectable=0;strokeColor=inherit;overflow=hidden;fillColor=none;top=0;left=0;bottom=0;right=0;pointerEvents=1;fontSize=16;" parent="PEr6sbL7nsEstti_IK5p-21" vertex="1">
          <mxGeometry width="80" height="28" as="geometry">
            <mxRectangle width="80" height="28" as="alternateBounds" />
          </mxGeometry>
        </mxCell>
        <mxCell id="PEr6sbL7nsEstti_IK5p-105" value="Backend -&amp;gt; DB" style="shape=partialRectangle;html=1;whiteSpace=wrap;connectable=0;strokeColor=inherit;overflow=hidden;fillColor=none;top=0;left=0;bottom=0;right=0;pointerEvents=1;fontSize=16;" parent="PEr6sbL7nsEstti_IK5p-21" vertex="1">
          <mxGeometry x="80" width="174" height="28" as="geometry">
            <mxRectangle width="174" height="28" as="alternateBounds" />
          </mxGeometry>
        </mxCell>
        <mxCell id="PEr6sbL7nsEstti_IK5p-23" value="SQL-запрос на формирование списка категорий и сумм" style="shape=partialRectangle;html=1;whiteSpace=wrap;connectable=0;strokeColor=inherit;overflow=hidden;fillColor=none;top=0;left=0;bottom=0;right=0;pointerEvents=1;fontSize=16;" parent="PEr6sbL7nsEstti_IK5p-21" vertex="1">
          <mxGeometry x="254" width="1136" height="28" as="geometry">
            <mxRectangle width="1136" height="28" as="alternateBounds" />
          </mxGeometry>
        </mxCell>
        <mxCell id="PEr6sbL7nsEstti_IK5p-24" style="shape=tableRow;horizontal=0;startSize=0;swimlaneHead=0;swimlaneBody=0;strokeColor=inherit;top=0;left=0;bottom=0;right=0;collapsible=0;dropTarget=0;fillColor=none;points=[[0,0.5],[1,0.5]];portConstraint=eastwest;fontSize=16;" parent="PEr6sbL7nsEstti_IK5p-2" vertex="1">
          <mxGeometry y="173" width="1390" height="30" as="geometry" />
        </mxCell>
        <mxCell id="PEr6sbL7nsEstti_IK5p-25" value="6" style="shape=partialRectangle;html=1;whiteSpace=wrap;connectable=0;strokeColor=inherit;overflow=hidden;fillColor=none;top=0;left=0;bottom=0;right=0;pointerEvents=1;fontSize=16;" parent="PEr6sbL7nsEstti_IK5p-24" vertex="1">
          <mxGeometry width="80" height="30" as="geometry">
            <mxRectangle width="80" height="30" as="alternateBounds" />
          </mxGeometry>
        </mxCell>
        <mxCell id="PEr6sbL7nsEstti_IK5p-106" value="DB --&amp;gt; Backend" style="shape=partialRectangle;html=1;whiteSpace=wrap;connectable=0;strokeColor=inherit;overflow=hidden;fillColor=none;top=0;left=0;bottom=0;right=0;pointerEvents=1;fontSize=16;" parent="PEr6sbL7nsEstti_IK5p-24" vertex="1">
          <mxGeometry x="80" width="174" height="30" as="geometry">
            <mxRectangle width="174" height="30" as="alternateBounds" />
          </mxGeometry>
        </mxCell>
        <mxCell id="PEr6sbL7nsEstti_IK5p-26" value="Возвращает список категорий и сумм" style="shape=partialRectangle;html=1;whiteSpace=wrap;connectable=0;strokeColor=inherit;overflow=hidden;fillColor=none;top=0;left=0;bottom=0;right=0;pointerEvents=1;fontSize=16;" parent="PEr6sbL7nsEstti_IK5p-24" vertex="1">
          <mxGeometry x="254" width="1136" height="30" as="geometry">
            <mxRectangle width="1136" height="30" as="alternateBounds" />
          </mxGeometry>
        </mxCell>
        <mxCell id="PEr6sbL7nsEstti_IK5p-27" style="shape=tableRow;horizontal=0;startSize=0;swimlaneHead=0;swimlaneBody=0;strokeColor=inherit;top=0;left=0;bottom=0;right=0;collapsible=0;dropTarget=0;fillColor=none;points=[[0,0.5],[1,0.5]];portConstraint=eastwest;fontSize=16;" parent="PEr6sbL7nsEstti_IK5p-2" vertex="1">
          <mxGeometry y="203" width="1390" height="28" as="geometry" />
        </mxCell>
        <mxCell id="PEr6sbL7nsEstti_IK5p-28" value="7" style="shape=partialRectangle;html=1;whiteSpace=wrap;connectable=0;strokeColor=inherit;overflow=hidden;fillColor=none;top=0;left=0;bottom=0;right=0;pointerEvents=1;fontSize=16;" parent="PEr6sbL7nsEstti_IK5p-27" vertex="1">
          <mxGeometry width="80" height="28" as="geometry">
            <mxRectangle width="80" height="28" as="alternateBounds" />
          </mxGeometry>
        </mxCell>
        <mxCell id="PEr6sbL7nsEstti_IK5p-107" value="Backend -&amp;gt; Backend" style="shape=partialRectangle;html=1;whiteSpace=wrap;connectable=0;strokeColor=inherit;overflow=hidden;fillColor=none;top=0;left=0;bottom=0;right=0;pointerEvents=1;fontSize=16;" parent="PEr6sbL7nsEstti_IK5p-27" vertex="1">
          <mxGeometry x="80" width="174" height="28" as="geometry">
            <mxRectangle width="174" height="28" as="alternateBounds" />
          </mxGeometry>
        </mxCell>
        <mxCell id="PEr6sbL7nsEstti_IK5p-29" value="Формирование json ответа" style="shape=partialRectangle;html=1;whiteSpace=wrap;connectable=0;strokeColor=inherit;overflow=hidden;fillColor=none;top=0;left=0;bottom=0;right=0;pointerEvents=1;fontSize=16;" parent="PEr6sbL7nsEstti_IK5p-27" vertex="1">
          <mxGeometry x="254" width="1136" height="28" as="geometry">
            <mxRectangle width="1136" height="28" as="alternateBounds" />
          </mxGeometry>
        </mxCell>
        <mxCell id="PEr6sbL7nsEstti_IK5p-30" style="shape=tableRow;horizontal=0;startSize=0;swimlaneHead=0;swimlaneBody=0;strokeColor=inherit;top=0;left=0;bottom=0;right=0;collapsible=0;dropTarget=0;fillColor=none;points=[[0,0.5],[1,0.5]];portConstraint=eastwest;fontSize=16;" parent="PEr6sbL7nsEstti_IK5p-2" vertex="1">
          <mxGeometry y="231" width="1390" height="28" as="geometry" />
        </mxCell>
        <mxCell id="PEr6sbL7nsEstti_IK5p-31" value="8" style="shape=partialRectangle;html=1;whiteSpace=wrap;connectable=0;strokeColor=inherit;overflow=hidden;fillColor=none;top=0;left=0;bottom=0;right=0;pointerEvents=1;fontSize=16;" parent="PEr6sbL7nsEstti_IK5p-30" vertex="1">
          <mxGeometry width="80" height="28" as="geometry">
            <mxRectangle width="80" height="28" as="alternateBounds" />
          </mxGeometry>
        </mxCell>
        <mxCell id="PEr6sbL7nsEstti_IK5p-108" value="Backend --&amp;gt; Frontend" style="shape=partialRectangle;html=1;whiteSpace=wrap;connectable=0;strokeColor=inherit;overflow=hidden;fillColor=none;top=0;left=0;bottom=0;right=0;pointerEvents=1;fontSize=16;" parent="PEr6sbL7nsEstti_IK5p-30" vertex="1">
          <mxGeometry x="80" width="174" height="28" as="geometry">
            <mxRectangle width="174" height="28" as="alternateBounds" />
          </mxGeometry>
        </mxCell>
        <mxCell id="PEr6sbL7nsEstti_IK5p-32" value="Возвращает json со списком расходов и категорий" style="shape=partialRectangle;html=1;whiteSpace=wrap;connectable=0;strokeColor=inherit;overflow=hidden;fillColor=none;top=0;left=0;bottom=0;right=0;pointerEvents=1;fontSize=16;" parent="PEr6sbL7nsEstti_IK5p-30" vertex="1">
          <mxGeometry x="254" width="1136" height="28" as="geometry">
            <mxRectangle width="1136" height="28" as="alternateBounds" />
          </mxGeometry>
        </mxCell>
        <mxCell id="PEr6sbL7nsEstti_IK5p-33" style="shape=tableRow;horizontal=0;startSize=0;swimlaneHead=0;swimlaneBody=0;strokeColor=inherit;top=0;left=0;bottom=0;right=0;collapsible=0;dropTarget=0;fillColor=none;points=[[0,0.5],[1,0.5]];portConstraint=eastwest;fontSize=16;" parent="PEr6sbL7nsEstti_IK5p-2" vertex="1">
          <mxGeometry y="259" width="1390" height="31" as="geometry" />
        </mxCell>
        <mxCell id="PEr6sbL7nsEstti_IK5p-34" value="9" style="shape=partialRectangle;html=1;whiteSpace=wrap;connectable=0;strokeColor=inherit;overflow=hidden;fillColor=none;top=0;left=0;bottom=0;right=0;pointerEvents=1;fontSize=16;" parent="PEr6sbL7nsEstti_IK5p-33" vertex="1">
          <mxGeometry width="80" height="31" as="geometry">
            <mxRectangle width="80" height="31" as="alternateBounds" />
          </mxGeometry>
        </mxCell>
        <mxCell id="PEr6sbL7nsEstti_IK5p-109" value="Frontend --&amp;gt; User" style="shape=partialRectangle;html=1;whiteSpace=wrap;connectable=0;strokeColor=inherit;overflow=hidden;fillColor=none;top=0;left=0;bottom=0;right=0;pointerEvents=1;fontSize=16;" parent="PEr6sbL7nsEstti_IK5p-33" vertex="1">
          <mxGeometry x="80" width="174" height="31" as="geometry">
            <mxRectangle width="174" height="31" as="alternateBounds" />
          </mxGeometry>
        </mxCell>
        <mxCell id="PEr6sbL7nsEstti_IK5p-35" value="Отображает категории и список расходов" style="shape=partialRectangle;html=1;whiteSpace=wrap;connectable=0;strokeColor=inherit;overflow=hidden;fillColor=none;top=0;left=0;bottom=0;right=0;pointerEvents=1;fontSize=16;" parent="PEr6sbL7nsEstti_IK5p-33" vertex="1">
          <mxGeometry x="254" width="1136" height="31" as="geometry">
            <mxRectangle width="1136" height="31" as="alternateBounds" />
          </mxGeometry>
        </mxCell>
        <mxCell id="mYydQ42CgvIPa5DPYtJl-1" value="" style="shape=image;verticalLabelPosition=bottom;labelBackgroundColor=default;verticalAlign=top;aspect=fixed;imageAspect=0;image=data:image/png,iVBORw0KGgoAAAANSUhEUgAABOAAAAH2CAIAAABWbmQGAAAAKnRFWHRjb3B5bGVmdABHZW5lcmF0ZWQgYnkgaHR0cHM6Ly9wbGFudHVtbC5jb212zsofAAACSGlUWHRwbGFudHVtbAABAAAAeJytVM1u00AQvu9TjHpqD6maKlSVD6gKIUghgUKa3jfOEpY662i9jsQtSeGAQKrUBwAOPEAohKYhdV5h/EbM5tdNQ0GIQzb2eOb7vvk844PAcG3ChseMNJ4A/BS3MYo7OKKzG7eBbntxJ36LEX6n3wXgGCPAIUW72MdvlNbGQXyGIxacSAXaDwTjofFV2KgKzRh3ja+hEtB1k6ikK5tcGchrXxmhajeCWe6e2FiNG17lgYBcdgIgW9yIKYY9IHV/Ue+QZNL1M/6Al1bfTBfdA15jD3/ggHrpYT/uWtXXlDPGYXwKG/h52Vn8fiNBtNA2v7CEM20OvDSmGaSIrYfjqVkTJiDTxuREh/CGa2wb3DKNQqtpCRFzL2b/VkIu60D5WXEd95sJ5Ij421MXKDzA/lLU0Gatsi3IyOdcFlLJNvGcUi7xYlL0bubgnT3+T6m3vLqyDhLbKVWO/kHsHwBrIulFspMlx5ffCH8V+GpZcXM21+my+VZclGw5wtHfDc1VUut8SBKTSvx2R4j7I9VF+NWi0hosVmB1Bic23PVaE3yLzTigw3412KFHi1spFaEldCCpsfT27s5uZnt/M68lPPFbkL4H6R0nk3Eye1AqH4F9vMU2Hx0WIfBD7QqoycBoWQ0N1W+xAm9xeB4qIxvCgadNoQq5x/MAPFQtSSIaQhlWOC4tE/Yyqaw0UBaalMBxieXECx56hipcvyZV3YHKUT61z4pc1UNeJ2yh2AOfcPVrB1ToeewXYh+bzoJxaaQAAIAASURBVHhe7N0JeA3X/z/wSCRIEEEaKqi1fKmliNgaS4vWVloUraUora3fr5ZS2x8p1Vpq7U9r35IQidiXSNJokIhYQgiRhCSWIIklIpLM/5N76nTMlnsjieve9+uZxzP3zJkz58zknmfe5ubGQgAAAAAAAAAwAhbSAgAAAAAAAIBXAQEVAAAAAAAAjAICKgAAAAAAABgFBFQAAAAAAAAwCgioAAAAAAAAYBQQUAEAAAAAAMAoIKACAAAAAACAUUBABQAAAAAAAKOAgAoAAAAAAABGAQEVAAAAAAAAjAICKgAAAAAAABgFBFQAAAAAAAAwCgioAAAAAAAAYBQQUAEAAAAAAMAoIKACAAAAAACAUUBABQAAAAAAAKOAgAoAYHSio6PDVNy+fVtaGwAAAMBUIKACABidLl26WKhYvHixtDYAAACAqUBABQAwOiygFi9evOVzDRs2REAFAAAAk4eACgBgdFhArVChAi8JCwuTBNTvvvuuf//+K1eu9PT0dHNze/fdd2fNmpWZmcl32b17d+/evRs1auTi4jJu3LjY2Fi+6ciRIwMGDGjatGmzZs0GDhwYGRnJylmb5ObNm6xk/vz5rOT8+fOsRK3ZL7/8ktWUyMjIyLOrYtqV165d++mnn7q6ulJib9eu3dSpU+/fv8/3lY/r0KFD1Npnn32WkJBAFWhcVIFK9u7dy3ZRGw4TGBj44mhyXbhwgVfQ2J2fTDri119//fvvvz9+/JhvFeM1xbZv3862ahxCgp86Wk9LS/vqq6/o5a+//iponjeNC0db9+3b98knnzRu3Jj2/eGHH+7duyc+Fkdn+59OqHdY+8qKO3/37l12mZYvX8620nCWLl1KI6JLyY5I9cU79tf8oQUAgNcIAioAgNHRJ6A2aNCAXlauXJk9a2Vbx4wZw7bOmTOHlZQsWbJYsWK0Uq5cORZEf/75Z7aJykuXLk0rmzZtErdJfvzxR3qZmJhobW3NSg4fPqzdLMXCWrVqVatWjVWgjtXSoVSm3VUJ7cqdOnWys7OrX78+BS1LS0vaRFk0JydHUBkX5R9KVrT+wQcfZGdnd+3ale3y9OlTQXM4zLp161gFsYCAALZVe3c2kDJlytSsWdPKyorWKXTxlsX4aRebOXOmkNchJFg7Q4YMoRjZvHlzWqcsStFO0DxvGhdu3rx5rPDtt992cHCglbp166akpPBj0ehYZarA+qDRYe0ryztP6yNGjGBbBw0axLa+//779JJOY+3ate3t7Wmd6ot3tFD/oQUAgNcLAioAgNHRP6BSDAgPD6cYRuHHQnffn5CQQPfoLAD079//2bNn165dq1ixIr3s1q1bUlISu31v06YN+74lCg/nzp0Tt0nKly9P+WTy5MnspYXuXl+jWd7PqKgoVn///v28UKOrvI6elUNDQ1m2JHQIdqyTJ09qjCs2NpYyEm3q2LEj/Vu2bNmrV68KuiST53D++OMPdgga14EDB9g6C6h57i5OXPPnz6d1CnK8ZTFWs1+/fjd1bG1tLXQBNc9DSLB2KIS/8847tNK5c2f+zFbtvPF95ReOn9K5c+fSy/v37zs5OdHLGTNmCC+OjtPusPaV5Q2eOHGCJVsLUUAtUaIEvVy6dCmtDx8+3EIpoCr+0P7TMwAAeH0goAIAGB39AyrPKsePH2cV9uzZ4+XlxdaDg4PZVnZPb2dnt337drZJ8d6dtWljY0P//vzzz5Tr2Dqrr9Esb0GecwTNrvI6nHZlylSffvpp3bp1K1euzMIP2a7D1hXH5e3tzbYSDw8PVqjPcJYsWcLqPHnyhF8CFlDz3J0N5I033mjdunWZMmUoia1fv/55wy+QhD1qwUIXUPM8hASPasTe3v7hw4d8k9p54xXkF46fUkq87BOzLKC6ubkJsj4z2h3WvrJs6+eff960aVNWbiEKqBS26eWHH364Y8cO9jRVElDVfmhZHQAAeI0goAIAGB39A2q/fv3Yy7Nnz7IKnp6eGzduZOunT59mW8ePH2+he1rFN4WGhrJNYqzNPn36ULxhn0odNmwYq0/3+hrN8hbkOUfQ7Cqvw2lUvnHjBiU9Wn/nnXcmTJjAPwi6bds27XFRFmLDKVasGP+Arj7D+fbbb6nEwcFBEF0C1kKeu/OA2qZNG/a5Vspm7FO1EmoBNc9DSPCAyhLa2LFjWbnGeeP7yi8cPzr7BC/38ccf82NJAqp2hzWuLN/K+8le8oCampraqFEjVp+RBFS1H1pWBwAAXiMIqAAARkf/gFqtWjX20c3ly5ezCpQNeOVly5bRJgpF7DcSaZdTp06xTVOnTuWN80dtPHV89913FrpPw4aEhLD6dK+v0SxvSp5zeLOKXeV1OI3K/AFdXFwcbdqzZw97SUFLY1wpKSlvvfUWbWL/vvnmm8nJyYLolKoNh0KRs7MzlXTq1ElcnwXUPHcXR7jr16+zyuHh4WyrmCTs8YCa5yEkWDsdO3aklM4+E7tlyxZB9GBTft74vvILx0+pr68vr/bkyZP4+HhB1mdGu8MaV5ZvtdD9J0JwcHDjxo0tRAH15s2b9NNIJb/99luvXr14m3xHtR9aVgcAAF4jCKgAAEZH/4BKd/NNmjQZOHAgCyQuLi5sa7t27Sx0v+83bNgwNzc3tu/atWsF3fflsJd0lNGjRzdr1kzyJUl0r5+QkDB58mQKMOfPn2eV2b2+RrOMPOfwZtW6KqFRmQePPn36zJkzh6Ime8mCltq4PvnkEwvdQ7m0tDQWe/iTTI3hXLhwgT32JBRT2bfOspfUyJ9//qm9Ox9Iw4YN6UyyL2eysrJKSkp6PtB/qQVUIa9DSIjbWb16Na3b2trSFdQ+b4zihevQoYOF7gHypEmT5s2b9+WXX9LP5C+//CLI+sxpdFjjyvKtZOjQofRSElDZL6y+//77gsrvoGr80AIAwOsFARUAwOjoH1D79u1LcYttqlu3LsUMtvXu3bu0iX3ikTW1ZMkStik1NZUyAP89PcoJu3fvFrcpTh2Se32NZhnFnKPdVQntyt9++y37Bh17e/vffvuNVWBBS3FcK1asYOvsC5MuXrxYqlQpKlm4cKGgORz+G5KK2BfGauwuiBKXhe6XMJs2bSr+nU8xjYCqfQgJSTt0Nix0Z4+SucZ5YxQv3P379z///HP+pbgsWx46dEiQHYvT6LD2lWVby5Urx77jShxQ/f39LXQXMTo6WlAPqOylIPuhBQCA1wsCKgDAa0l8X379+nWKXtnZ2ZI6lEzOnj17+fLlrKwsyab09PTIyEiKB7Qi2ZQnjWYV6dNVLs/KFIEogTx58kRcyOVjXIrDYQF18uTJooq5goODLZ4HVEZx94JVIIfQPm8aHj9+TKf00qVLDx48kG5TodjhPK8sAACAgIAKAPCakj84MloGddWgyoUnLCzM3t5+1qxZknIKrlTO/vIKGMRIriwAABg5BFQAgNeSm5ubk5PT+PHjpRuMj0FdNagyvEZwZQEAQB8IqAAAAAAAAGAUEFABAAAAAADAKCCgAgAAAAAAgFFAQAUAAAAAAACjgIAKAAAAAAAARgEBFQAAAAAAAIwCAioAAAAAAAAYBQRUAAAAAAAAMAoIqAAAAAAAAGAUEFABAAAAAADAKCCgAgAAAAAAgFFAQAUAAAAAAACj8FIBNedZ1u2jp2L+3BU56w/6l9apRFoJAAAAAAAAQA/5DKiZqQ/P/bhqp0MnDwsX8bLToSOV01bpDgAAAAAAAACa8hNQ75+K8nPuzhLp/oa9Q0f87/zM2fQvrbNCP+duVEe6GwAAAAAAAIA6gwMqJc/ttu9RCj3SZuDdUJ+cnNPihUqonLZut22HjAoAAAAAAAD6MyygZqY+ZM9OTwwen515SpJO2ULltJXq+L7Z9WZMXFpaWkZGhrQhAAAAAAAAgBcZFlDPTV3Jnp1mPQ2TR1O+0Fb2HPXIiJnR0dGJiYmIqQAAAAAAAKDNgICa8yxrZ/n3KXbKP9krX6hO7gd97dsHHQ2IiIiIjY1NTk5GRgUAAAAAAAA1BgTUO4Hhud+K9E4feRxVXPa/83Hu9/rO/c3f359l1LS0NGmjAAAAAAAAADoGBNSY1bkPRcO+mijPoopL2Ff/o/pbvpzs7e3NMmpiYiIeogIAAAAAAIAiAwLqxZ/WU+A8O2WGPIsqLlST6m/+dPymTZt8fHyCgoKio6PxEBUAAAAAAAAUGRBQnz9B/U6eRRUX/gR13bp1W7du3bdvX0RERHJysrRdAAAAAAAAAIMC6vPfQf1EnkUVF/Y7qNumL6CAyh6ihoSEJCYmStsFAAAAAAAAMCig5uNbfD3LuHls2UoBdePGjd7e3kFBQbGxsdJ2AQAAAAAAAAwKqMK/fwf1cz3/Dqpn73Genp7r16/fsGGDl5eXv79/dHS0tFEAAAAAAAAAQwNqZupDP+fulDyPfzE+O/OUPJrSQuUnBo/PTacVOnmu24iACgAAAAAAAPowLKCS+6eittu+R/nzUKsB8s/6Ugl7dupRoo3nvKWUTj08PPARXwAAAAAAAMiTwQFV0GXUnZW65qZQC5e9//k4qNvwo+0/p3/3N+zNCnOfnerSKdm6Nfd3UPElSQAAAAAAAKAtPwGV3IyJOzxilmfp3EepLyx27Tz7jGef7GWPTyma4s/MAAAAAAAAQJ7yGVDT0tKio6ODjgZ4z16y7d3PKJrSv9umLfDYspVHUwqlLJ2yx6dBQUG0C+0obQsAAAAAAAAg3wE1IyMjMTExIiLC399/e///UUDd/PGYdTrrddg6S6fe3t5UjSrTLrSjtC0AAAAAAAAwShl37j+8cuN2QDhbaJ1KpJUKTj4DqqB7iBobG0uxc/eQqblPUD8Z/8cff6xevfr/dGiFXm7dutXHx4elU6qMx6cAAAAAAABGKys9I/nYmUsLtxz7ZNL+Bv28SrSR/lKnbqFy2nrsk++pJtWnvaQN5Vf+A2pGRkZycjLFziOj51AXfQZN2rRp04YNG9bq0Aq93LdvX1BQEEunVBmPTwEAAAAAAIxN9tPMGzsDjvX+nifSvXW6B3/81Znvp11a8uu1dStuHfVgC61TyekJPwT3HEF1/smrNq0DO4+5tsYv6/ETadMGyn9AFXQZNS0t7fjERdQniqm7d+/28fHZrkMr9JKiaXR0dGJiIlVDOgUAAAAAADAqT+8/ODt5+c7ynSjT7arSOWLijwm71mfcDZb8PVG1hWpSfdqL9qUWvMu2p9aoTelh9PZSAZU5M20VdSV00m9hYWF///13kA6t0Mvk5GREUwAAAAAAACN03esIRVNPK9fjA8fe8t+Wkx0uj6D6Ltnh1AK142nV0tuh44U1PvlLgloB9XZAeOSsP/JcjrYfTQGV/v1r/M+SRV6Z2pQeBgAAAAAAAIrW2cnLKccddu2fGrlXmjZfYqHWqE1qOfCrOfn4LK1WQKU8Kf5F2AJZqE3pYQAAAAAAAKAIXXBfR+ksbNTE7Gcv8dRUZaE2qWVq/8jYnwz9NiKtgIonqAAAAAAAACYm5ewVL+vWIf2/kWfLAlyofc/irY5t9Y2OjtY/o2oFVLEHDx7cvXs3KSkpPj7+6osoiFJApX9PykhqctQINUUNUrN6dhQAAAAAAABe3vFBM7zLtdf/m5Dyt1D7dJSdHUeEhITon1ERUAEAAAAAAMxF9tPMHXZuYaO/k0fKAl/oKJ4l2/rt9NE/oyKgAgAAAAAAmIv7oRcovl1ZuUSeJwt8oaPQsbb9tGTfvn2hoaGxsbFpaWnSDr0IARUAAAAAAMBcRC/1ovh2ccF8eZ4s8IWOQsfaMvh7Ly8vf3//yMjI5ORkaYdehIAKAAAAAABgLuK2HKD4duaHGfI8WeALHYWOtXHU1M2bN/v5+YWGhiYmJko79CIEVAAAAAAAAHNx6/DJ3PjWY6Q8Txb4QkehY234bs7GjRu9vb2DgoJiY2OlHXqRvgFVQ6Tuz6XSv9IYevWqtCoAAAAAAAC8OrcDwim+7Sj9XhF8iy8dJfcJ6g8/bdiwgX3KNzo6WtqhFyGgAgAAAAAAmAsWUL2KuxbB30GloyCgAgAAAAAAgDIWUE8O/x/9GzZqYvazcHm2fMmF2qSW+VEQUAEAAAAAAEABC6i3jnqcnTydVg679k+N3CsPmfleqDVqk1qm9ukoCKgAAAAAAACgjAdUCpPxnn/sLN/B06rl8YFjb/lvy8l+iaep2eHUArVDrVGb1DIVIqACAAAAAACAKnFApSXj3rGzk6d7l839NqNdVTpHTPwxYdd6/b8/iWpSfdqL9qUWKJpSa9Qm24qACgAAAAAAAKokAZUtzx6diPlzeWDnoV42rWkrLXvrdA/uOeL0hB8uLfn12roVVJ8ttE4lZ76fFvzxV1SHVfYq0eZY76+ue6/NyggVN4uACgAAAAAAAKoUA+q/SfXxyTvBXlG/Ljj2yaj9DT6m5MkiqGShctpKdagm1ae95E0hoAIAAAAAAIAW7YAqX57cDnoQfZA/QaV1KpFXU1wQUAEAAAAAAECVoQH1ZRYEVAAAAAAAAFBl4gE1Kz1jX71+dFT6NzryIgIqAAAAAACA0TLlgJqTnX2sz2T+m7IHu4y9Eh2NgAoAAAAAAGCcTDmgRvx3sUfu37p5P8EnkP6l9YBhMxFQAYpSZsoDmmXMZMlMfSgdPwCYH3OY9zDdAUDhuW2qATV6mZdH7vcLt70TGE4vEw+f8LTJ/Q7i4GnLonQooGZkZEh3A4ACxaYYM1nYbAMAZs4c5j1MdwBQeEwzoCb6/eVp5epRrGXc5v30koLogwcPTi5cTyUeli1Dlm1iAZUKkVEBChWbYi4t/vV2gIcJL5cW/Yo7NgBgTHvew3QHAIXNBAPq/VNRO+zc6EiRs/8UnqfTu3fvUiINHD+fyr1KtTu9Yz+9pEJkVIBCxaYYuqeRzwimtLDZDXdsACCY+ryH6Q4ACpupBdTH8Td3Vf6IDnNy6GxWwtJpUlISJdKoqKgDvf5LW70dO1/86wQVsoz6YhsAUGBM+0aNL2x2O7Doj5CQkIiICJraEhMT09LSpKcDAMyAac97mO4AoLCZVEDNTH24v+EAOkZApzHZmc8E3eNTlk7j4+NZQL14PnKP61Cqs6vuJ9cio1hGxUNUgEJi2jdqfGGzm9eshX5+fjS1hYaG0uyWnJwsPR0AYAZMe97DdAcAhc10AiolUsqldADKqOzL5diHe3k65S5HnKN0SjX3tf4yLuYaVcAHfQEKiWnfqPGFzW6bpvy0detWHx8fmt0iIiISExOlpwMAzIBpz3uY7gCgsJlOQD05dHbuc9HKHz2OvymIfvWUp1NaSXouNuzszje6UP0jn3xP5fhlVIBCYto3anx5Pru5r1+/nm7a/Pz8QkJCYmNjpacDAMyAac97mO4AoLCZSECNnP0nNb3Dzu3+qShBlE7Zr57ydMqCKNsUfSB4u+17tNdf3y7gm5BRAQqWad+o8YXNbp4zf6U7Nv0nOAAwSaY972G6A4DCZgoBNW7zfo9iLT2tXBP9/hJeTKfs8ak4nWbosAqRG3axv0YT/ttmZFSAwmDaN2p8wR0bAHCmPe9hugOAwvbaB9Q7geFeJdpSu9HLvAQ90inbi1c75Z776NXTps15z33yagDwkrRv1K5d2xMaulm8PHhwTF7NeJYVK6b88ccMeTnu2ACA05j3+KQXFrbl6tXdmZlh8jr6Lz/9NG7btvny8gJZMN0BwKuSHHyG5pmbh7fKp6ACX+gouQF16jz9J7Q8AmpaVOzO8u9ToxH/XSzonU4ZXvnYV3OphR3lOl46GqJWGQDyR+NGjZYhQ3pYWlra2ZXiy99/r5dXy9/yzTf95s0bLy9/mWXQoI+GD/9YXo47NgDgNOY9mvSKF7eqUMGeFisrSyenCtu3/yKvpufSqZPL5MlD5eUFsmC6A4BX5eHVGzTPXFu/Uj4FFfhCR6FjbVjwm/4TmlZAfXL7/u4aH1OLx/pMzsnOFkR/8pR/MZJ24GQZNfnOnSMfTaB2djp3u3r6PN9FWhsADKdxo5aju1dzc2smLy+QpVu3dhMmDJSXv8yCOzYAyJPGvCee9NLTT4wc2adkSZvHj4/La+qzIKACgEnKfpq5w84tbPR38imowBc6imfJtuv/XKP/hKYVUP/uN5WmyMMth2Wl54bPjBf/5Cl7fKqRThmWUe8kJO1tOohaO/jReP7QVWMvANCTxo1ajnpAnTNnzObN7suX/9C6deMvv+xFJWvWzGrfvnnjxnW/+KJbdPQucc0tW376/fdprVo1eu+9d6kaK1+xYsqbbzrWrVu9f//OtCQkHKTC3bt/o9TapMnbfft+cOrUv58bUWuEluzs8F9++W+LFg3atm2yfv1s3LEBQJ405j3JpHf06GoLC4vLl33Zy7/+WksVXFwa0tQ3ceIX9+8H8Zp79y7r0eO9Ro3qdOzYguY3VigOqLduHRk2rKeHx8/sJaY7AHitHR80w7tch4y7wfJZqAAXan+HvZtH2yEGTWhaAfXJ7fuUUelfQelPnrKcqZ1OGbZv3Lmow92/jTp52qB9AUCbxo1aju5erV27punpJ9iSkXGSldNdV5Uqb/Tq1Z5utvbsWbpkyfelSpVYtOi7ffuW9+zpVrFiubt3A3jNqlWdPvusi6/vYnf3sZaWlocP/07loaGbmzWrT/dnXl4LaElLC6b7sNKlbefNG08VZs4cRQ2eOeOp3Qgt8+dPKFPGjm4H6W6PEnKlShVwxwYA2jTmPXFAvXnz8MCBH9aoUeXp01BWsnDhRIqIBw+u9PFZ1KZNE5oeWfnq1dOtrYtPnTr80KFVFC95KOUBNSpqJ7UzfvyArKxTObr/0cN0BwCvtZSzV7ysW4f0HyOfhQpw+bvfN57FXT1/WWHQhKYVUMXYh3sl6VT/p6D5e/oKAHnSuFHL0d2rWYhQpGTldAv1n//UzM4Op/XMzDAHh7ILFnzLNtHL6tUrT58+ktekvVhNWrp0aTVmTD+2Lv6IL+3l6Ojw22+T+KGHDu05YEBX7UborpEOvWzZD6w8NTXY3r407tgAQJvGvCeZ9CpXrhgWtkVejZY7d45ShYsXd9JEVL68/axZo+V1WED966+1FSuWo2TLCjHdAYBpuOC+jmabkyMnZj/7Z8oqwIXaDP1qIrXv8dn/PDw81q1bt3HjRm9v76CgoDz/sLPBAZXJx++Rin9/lUFABXh5GjdqObp7tZYtG167toctiYmHWDndQn39dV+2Hh29i+7Szp3z4nt9+WWv7t3b8ZriXzSlvfr06cjWxQGVdqdGRo/+dObMUTNmfEX5tnPnVo0a1dFu5PJlX9orKmon30R74Y4NALRpzHviSe/06W0021CYjIvbx7bevu0/ZcqXHTq0eOed2g0a1CpWrNjevcvOns2dvvgjUPFCc1fz5v8pU8aOf7I3B9MdAJiQs5OX04RzoEW/1Mi98uko3wu1dtClX+5U1msspdPNmzdTQKV//fz8QkNDExMTpf14kWEBNem5fGRL9kHfl2wEACQ0btRyZL+OxRfxL1ZFRHjQbdPVq7v51rFj+9MNnLwmLWPG9OvVqz1bFwfUEyc2UiPffz/kp5/G8UXx97jEjbBDx8fv55t69+6AOzYA0KYx70kmvezs8AoV7ClGspctWjT46KO2Bw6soFB64YK3tXXxnTsXnjy5iSYi8e/e84XmrrZtm9jZlVqy5HteiOkOAEzJ3wvXeZZx87Bseaz/mFv+23KefwAkP0t2OLXw92djqDWP0u95/ncOS6fi2SwyMjI5OVnaiRcZFlC5/AVLnlFfsh0A4DRu1HJk92p8Ed9CpaUFFytWzMdnEd/63nvvjhjRW14z58WASivjxn3G1u/eDbC0tFT7cw5qjaSm5h56377lfFPdutVxxwYA2jTmPcmkl5V1qnx5+0mThtB6UtJhioiXLvmwTbRCLymg3rsXSNOX+BkpX9jcFRS0pmxZO/5XtTDdAYApiY2NPeEf5NP3fx6l2tLks7PSB6f/NzVh13r9vz+JalJ92ov2zf1ML0XTXmM9127k6XTdunVbt27dt29faGgoHS4tLU3aiRcZEFDF8p0qWUYtkKYAQNC8UcuR3avxRXILNWBA18aN69LdG61v2jSX7qJOnNioWFMcUMePH9C6deObNw8/eHAsOzv8iy+61axZhX9M7sIF70OHVuXZSN++H7i4NKQbRFpfsuR7uu3DHRsAaNOY99iX9EZH76IlLGzLV1/1oVnlr7/W0qZHj0KsrYuvXDk1RxcXO3duRXMdBVR6OXDgh7VqOZ8/vz1H9yumrH6OaO6iKdHBoezMmaNYOaY7ADAZycnJNMOEhIT4bffe9tWPWxt+4lG8VW7OtHDZVeOjgI++PD3hh0tLfr22bgXNTmyhdSo58/20wB4jqA6r7GHd2tNlkMfEuZ5btlI0pUS6adMmiqY0ldG6n58fHYIORIfLM/3pG1AzXiTdbAhJUy/ZGoCZ07hRy9E7oN66dYSq0d1SuXJlbG1LLlr079/F0rjZunp1d5s2Tag++6KRhw//HjasZ/HiVuXL29vZlaJ/V636Mc9GEhIONmnyNt010s0fVcNn3gAgTxrznvhLksqWtaNA6O2dG0HZsnTpZBsb60qVKpQubfvrr/+jmYoF1LS04H79PqC8WrFiOaog/iV8PndFRHg4Ojp8/33uw1hMdwBgMiiL8Yy6b98+ypYb/1y7YepPmz77dkvzz7ZV6UrJ858IKlmo3PlDj5aDPL743nP2Io+NmymIbt68mXIpe2rKvhiJGqRm9U+ngv4BFQCMk8aNmqHL9ev7z571evQoRL5J/4Xu86iR2Ni9z57l/jEGfZbs7PCoqJ0xMf/+Eqx8wR0bAHAvM++lpPx17pxXaqrCR9eSkwPOnPFknyXRZ8F0BwCmgWfU0NDQgwcPent7s+efNAWxnLl+6coNP/+28Yef2ELrG5atWv8iVpOhHWl3aoSaogapWf3TqaAYUKOiouLi4sQl9+7dCwsLy8nJERcCgDF4mRu112jBHRsAcKY972G6A4CiR9Hx9OnTfn5+lCpp8tm8efPOnTtp/uEPRTdu3Lhy5crFOkuWLKF1NkdxVIGqUWXahXb08fHZt29fUFBQREREbGys/ulUUAyoLVu2HD58uLiEDmZhYfHkyRNxIQAYA9O+UeML7tgAgDPteQ/THQC8Ep9//nnx4sUr6Nja2laqVKlfv36enp6UWiltent7Dxw4sGHDhs11aMXFxWXWrFlez1EFqkaVKZfSrBUSEkLRlOauxMTEtLQ0/dOpgIAK8Loz7Rs1vuCODQA40573MN0BwCsxZMgQNzc3SpKUJylVbtu2rX79+jVq1Dhy5AilzaCgoD59+rRt29Zf58CBAxRfnZyc9u/fz0qoAlULDQ3luTQ5OdnQaMoYHFDPnz9P6blp06aurq7Dhg27efMmr7Znz55u3bo1adKkb9++4eHhrHDu3LlbtmxZsWJF69atv/zyS14ZAAqEad+o8QV3bADAmfa8h+kOAF4JFlDFJfHx8ba2thMmTKC0GRsb++mnn1Kgi36OIp61tfXhw4fZS6rwMqFUzLCASgd74403vv7666NHj+7du3f69Ol8xly7dm3p0qXnz59PIXvmzJmlSpU6e/YslXfq1KlKlSq9evXy9PSkXcTNAsDLM+0bNb7gjg0AONOe9zDdAcArIQ+opH///k2aNGHr4gq3bt0aOHBgjRo1MjMzeeWCYlhAvXLlCq0kJCSIt5Jnz545OjouXbqUlwwdOnTAgAGCLqD+5z//wRcsARQS075R4wvu2ACAM+15D9MdALwSigF1ypQpFSpUYOtUgf8dL1K5cuVTp069WL1gGBZQKYg2bNjwrbfe+v777w8fPswT8/nz56nC6NGjZ86cOWPGjOnTp3fu3LlRo0aCLqB+/fXX4tYAoACZ9o0aX3DHBgCcac97mO4A4JVQDKgU+pycnNg6VaCcGKsTERFBEc/R0TE+Pv7FPQqAQkB9//33+/fvLy5ZsWKFjY1NdnY2rT98+PD333//+OOPy5YtW7NmzZiYGCo8efIkBVQawDyRlStXCrqAOnnyZHFrAFCATPtGjS+4YwMAzrTnPUx3APBKKAbULl26tG7dmq1LKuTk5FSoUGHGjBm8pKAoBNRRo0Y1aNBAXDJmzJh69eqJSwRdUqVCCqWC7g+lWlpa7tixQ1JHQEAFKGTsRu3Sol/pnsaEFxog7tgAgDHteQ/THQC8EvKAeurUKSsrq8WLFytWyM7OLl++/KRJk3hJQVEIqGFhYcWKFfv5558zMjLowAcOHChduvSiRYtoU1xcHL1kj1IplNaqVWv+/Plsry+++KJmzZrsi5HIxYsXDx8+LCCgAhQydqNmJgvu2ABAMI95D9MdABQxyp8uLi5Xrly5fPnysWPHZs+eXbZs2fbt2/Ov5OUVCGXXr776ytLSMjg4+MVmCoBCQCWrVq1ycHCgQ5YoUcLa2vrrr79mv2567tw5JycnGxubqlWr0qaPP/748ePHbJdHjx4NGzasePHilKTt7Ozo399//11AQAUoZJmpD+8EhrPlwKI/vGYt3DTlp40/uNPNjQku6zbijg0AzGLew3QHAEVryPPvQLKysqpYsWKHDh0oEj579kxegVB2pbC6c+dOUQMFRjmgCrov5o2KiqJESslTsunGjRtUfu/ePUk5efDgAW2Ki4vLysqSbgOAQhYSEuLn57d169b1Jo0GSMOkwcbGxkpPAQCYGdOe9zDdAYAZUg2oAPDaiYiI8Pf39/HxoXuaDSaKhkYDpGHSYBMTE6WnAADMjAnPe5juAMA8IaACmI7o6OjQ0FC6m/Hz8/MyUTQ0GiANkwabnJwsPQUAYGZMeN7DdAcA5qlgAmrkrD+kRQBQ5BITE+k+JiIiIiQkxL/wrR89VVpU+GhoNEAaJg02LS1NegoAwMwU5bxXxJMepjsAMDZFE/oKJqB6WLhIiwCgyNEdTHJyMt3KxMbGRhe+36zflRYVPhoaDZCGSYPlXysHAGarKOe9Ip70MN0BgLEpmtCHgAoA+YQ3PgCYFUx6AGDmimYaREAFgHzCGx8AzAomPQAwc0UzDSKgAkA+4Y0PAGYFkx4AmLmimQYLJqAWze/LAoBRwRsfAMwKJj0AMHNFMw0WTEAFAAAAAAAAeEkIqAAAAAAAAGAUEFABAAAAAADAKCCgAgAAAAAAgFEomIBaNL8vCwBGBW98ADArmPQAwMwVzTSYz4Cq/RXD2lsBwDTgnQ4AZgWTHgCYuaKZBhFQASCf8E4HALOCSQ8AzFzRTIOFFVDd3d3XrFkTHBws3QYApkJ7HgAAMDGY9ADAzBXNNFhYAXXmzJm//fbb4cOHpdsAwFRozwMAACYGkx4AmLmimQYRUAEgn4rmF+UBAIwEJj0AMHNFMw0ioAIAAAAAAIBRKOqAmp6efuzYsSVLlszRkWzltm7dyiqIBQUFSesBvDobN26Mioq6cOHC5s2bWQn/uV28ePGhQ4derG505P0HAAAAAHi1ijqgTp482UJEspXr0qVLgwYNhos4OjpSm9J6AK+Om5vb9u3bt23b1qlTJ1ZCP7eNGzceM2bM4MGDy5Ur161bt5ycnBd3MiLy/gMAAAAAvFqqEVFbvgOqr68vlc+ePTvPgDphwgRxScuWLcUB9enTpxEREWfOnMnMzPy3kiCkpKTcEKFqVHj79u3Hjx+LqzFU+cSJE4GBgTdv3hSXKzZOjVCDCQkJDx48ENUV4uLiqIULFy5kZ2ezkvv374v7wPCmsrKywsPDjx8//vDhw39bMbDnYpI6NJYnT56wdXnf6Oi8cZKcnMy7kZaWduvWLbZObaanp7P1jIwM2oX+ZeVJSUmsnFCztInGy0vkR2Tko9Y+S5y4J48ePaLzz8vVRq1x+cR4fcVD0OW4d+8e350kJibyXRh5wBP/3FIf6Cf8r7/+Yi/Vzgy9jI6Opk3UJUH3EQM+RkJHpHK+i+LQBF23xUPjZ0b+80OBmSrQ5RCU+g8AAAAA8GqpRkRt+Q6ojI+Pz8sE1LCwsGrVqjVu3LhBgwa1atU6d+4crzZmzBgHB4cGOpaWluzv3FDNTZs28TocNdKiRQtXV9eSJUsuWLCAFao1TiXOzs5UaGdnR+uxsbFUOHTo0Bo1anTs2PGtt95q3rw5izQ//vgj60CpUqXYLuTSpUu0if6tU6dOvXr12rZt6+jouH//fta4YGDPxSR1qM90egWVvlE+GTZsWNeuXVnCofO8ePFiWqHhVK1albIKb5Ovjxw5kq4Uu5RUXqxYscuXL7NNO3bsoE1DhgxhLxWPKKiMWuMsifGeUD6sXbu2u7s7L1ccdZ6Xj7GxsWH12Sb5Iahx2p0//zx79qy1tTXlPfaSkQc88c8thUArKyvWstqZoTPZpEmT6tWrd+jQoVKlSr6+vhSMqQ67KKRHjx69e/dm62pDI8uWLbO1tWVDox/mdevWsXL5zw+1T5eMhWF5/w1VNL8oDwBgJDDpAYCZK5ppUDUianuFAZXu++vXrz9p0iRWPnr06HfffZcHia+//ppK2Lq9vb12zGPPkYi3t/ebb77JStQa5zHm2bNn7du3nzFjBq2zG31B9xysT58+U6ZMYS8Z6rP4uNQOheHp06ezl7t27XJycuIPuAzquZhaVFPrG42RXvbv35/KWUC9desWBcj/+7//443wwYaGhlInKTnzgEqRfty4cawaJRwXFxceUBWPqD1qQXaWJFhPkpKS6tatO3v2bHG5fNTal09en60rHiIjI6NixYr8B/ibb77p168fW+fS09PpiPTzwJ+sin9uV69eTWH+4sWLgvqZoZM5fPhw9oCUmkpNTaWVkydP2tnZ0ZlfuHAhhVWKlGyr2tAIvdfoZ5KtN2vWTM+AKu+/obTnAQAAE4NJDwDMXNFMg6oRUZt25wo1oF66dIl2vHPnDiuPiYmhl9evX2cvhw0bxncUxzwKHmFhYbQv+6gqR4W7d+/u1q0bC10ajVMj7u7uVN/X17d69ep79+4VdBnjyJEjNNI5c+b07NmTui1qWxq9rl27Rq0FBQVFPEc9PHHiBNtqaM85XodxdnZm0Uujb9TU22+/PWrUKCqks0ot8MzJsMxGwal58+Zr1qypUqUKD6grVqyglw8fPjx37hy9nDhxIg+oikfUHrUgO0sSdIglS5bUq1dvxIgRknL5qLUvn0ZAVTzE999/37dvX1qhOE199vf3F29VREOmmtT4G2+8QSGTmmXlimfm6tWr1D3xR6a5RYsW0UmmFiisshKNoZF58+bx6ysJqJKfH3FAfXna8wAAgInBpAcAZq5opkHViKhNu3OFGlADAwOLFy/Oy588eULt8Pv4Hj168Idg4pjXqFEjatPFxaVChQqUMPnuU6ZM6dy5c82aNdkDQ43GG+uwRpo2bXr+/HlBdzhanzVr1tKlSwcOHEid5PsKsuhFIc3S0rLLi0JCQthWQ3vO8TqMra0ti14afaPGqTVq00aH9qLILf7dWhZQV61a1apVKwpX4oBKI/rmm28opo4cOfKPP/4QB1TFI2qPWpCdJQk6IvWwW7du1AfxL7sqjlr78mkEVMVDUAgsUaLE7du3165dW6dOHX2+7oh6QgOnEH7lyhX+i76C+pkR91YsISGButS2bVteojE0Mnbs2MGDB7N1SUCV/PwgoAIA5BsmPQAwc0UzDapGRG3anSvUgMqeOyUmJrLyqKgo8UsKHtu3b2frih+UnTt3bpMmTdg6FxkZaW1tTffuGo2zzMbKqRFXV1cKMBS9eK6bPn26dkCNi4uj1sRfgSOWv54LKtFLo2/p6ekUt2gXCmM1atT47LPPqHDAgAGjRo3ijVCby5Ytc3R0pKxFLyUB9eLFi9SCs7MzNcUDqtoRtUctyM6SBB2R0hetDBo0iD3P5OXyUWtfPnl9tq52CNK1a9eff/6ZrvUvv/wiLlcj/7kV8joz9O8LtXWf5nVzc6McW7Vq1RUrVrBCjaGRFi1aLFq0iK2rfcSX/fwgoAIA5BsmPQAwc0UzDapGRG3andMIqN7e3r169XJxcbHQ6aUjTy/yG30eUHNycugWnNIUrdCtfP/+/du1ayfonin9+uuvDg4O7Bf5BKWYl5mZOWLECF6ff6PswYMHKaBS3FJrnDXCAiprpHXr1vHx8TQE9ij1ypUrTk5O2gGVdOzYkSLQo0ePBN1Ajh49SkcxtOcSitFLo290Ynv27MnWuzz/kqS7d+9WqlSJXy9qs3Llyiy2CbKAKui+4mj16tW0wgOqxhEVR802CUpnSYyfdjo51apV27BhAy+Xj1r78snr802KhxB0vzFbsWLFEiVKJCcn80IN8p9bQfPMtG/fvk+fPuw7hCnBso/7Tps2rWHDhuwvBtvZ2Z05c0ZQ/7En/v7+NjY2PHMqBlT+81OwAbVoflEeAMBIYNIDADNXNNNgUQfUefPmsWgqFhUVJakmv9HnAZVcvHixUaNGb7zxRoUKFeh2/OrVq1Q4e/bsNm3aiD87Ko55tra29LJcuXJ0j86+/vTatWvly5enJFCvXj1qh9/TKzYub+Ts2bOCLp6VKlWqfv36tWvX/vbbb/MMqJRAunfvXrp06bfffpvaadKkCSUHQ3suoRa9FPtGzVLi4n9WhwdUsnPnTv5BX2qTzgAPzPKAyok/4qt4REFl1LwF+VkS4+mRBAQE0O7s+5PVRq1x+RTrs02KhxB0DzOdnZ0HDBjAXuZJ/nPLqJ2Z69evd+jQgc5M3bp1HRwcDh06dOTIkTJlyrCvViLu7u500tj/pCgOjSK0pY79c1ZWVnSsPXv2CEo/P2oBNT0pOWa1z9N7aZJyAAAAAICiVNQBtQBR7JH8/VJDUUyKjo6OiYmR//lN/Ru/c+fO5cuXxY8E80R5gzK5+NcdC0k++vaSNI5YZKMWDLl82qjPZcuWDQoKkm4wnMaZodB46dKlPP/gLSMZ2vbt24cPHy7anmvIkCE8fuvvTmD4zvLvH/98ZnJw7jNbAAAAAICi9xoHVIBCRT+9gwYNkjwVNzb+/v5z5syRFM6aNSswMFBSqI/4rQe9irfytGy5r36/y4u34YEqAAAAABQxBFQAZb179x4+fDj/uK+ZoIzqaeW63bbdvvr9d5TpgAeqAAAAAFCUEFAB4AUso9K7mJY9tfrsqtJN7YFq0fyiPACAkcCkBwBmrmimwcIKqFiwYDGZZbvte/Svd7lOSftD5Fsli3Q6AAAwFZjiAMDMFc00WFgBFU9QAV5TdwLDd9i244HTq2Rb38ofRs3fwJ6g5vnelxYBAJgKTHEAYOaKZhpEQAWAf/F06lm8tZdNm6APv5X8Dmqe731pEQCAqcAUBwBmrmimQQRUAPgHpVMv69YexVzEj0wl8nzvu7u7r1mzhv0hXwAAU6I9AQIAmLyimQYRUAEgF6VTb/uO8kemEnjvA4DZKppvBwEAMFpFMw0ioAKAkJ6UHLPaR/GRqQTe+wAAAABQeBBQAcAAeO8DAAAAQOFBQAUAA+C9DwAAAACFBwEVAAyA9z4AAAAAFB4EVAAwAN77AGC2iubbQQAAjFbRTIMIqABgALz3AcBsaU+AAAAmr2imQQRUADAA3vsAYLa0J0AAAJNXNNMgAioAGADvfQAwW9oTIACAySuaaRABFQAMgPc+AJgt7QkQAMDkFc00iIAKAAbAex8AzFbRfDsIAIDRKpppEAEVAAyQv/f+qVOnFi5cOGbMmGHDhv2///f/YmNjxVu5Dz/80MfHR1oqCElJSQ8fPtQuAQAAAAATgIAKAAbI33vfzs7OQsTa2jowMFBcgWncuPGmTZukpYLQrFmzdevWaZcAAAAAgAlAQAUAA+Tvvd+1a1c/P7/k5OSwsDBHR0fKqF26dBFXYFhATU1NDQoKio+PZ4X37t1r1KjRokWLbty4cefOHcWS27dvP378+O7duwEBAXFxceI2o6Ojjx49evr06czMTHE5k5KScuLECUrLN2/eFJdTI1R44cKF7OxsXkhHufGiJ0+e8E1qHXj69GlERMSZM2ckHaCWqW90FGpHXM6wBvlL6h4/lqDSPQl5+9r9T09PZ+sZGRm0if5Va0dQGZS4kUePHiUkJPBNnMaJUhuUpAN0CHHLNAQq57sodkzQ9Uc8cPG5VdyFnSs60IMHD3ihhMZJ4zTOiXy89+/fF3eS4b3KysoKDw8/fvy4+LMDkmvKK6sNSvHkqw1ErVxCrVlBaYyM0V5TAAAwBgioAGCAl3/v9+3blwJqkyZNpBt0AXXkyJG1atVq2bJlyZIlly9fToVTp061tbV96623mjVrNnToUMUS2nHQoEFU0rZt21KlSi1YsEDQ3QR/8sknb7755gcffECH69y584tHy1WtWrUWLVq4urrS4dhehNqsUaNGx44dqcHmzZtTHmbldBRnZ+cGz9nY2PAPJCt2gFAgp0PQVqpP4zp37hwrv3z5MnWpevXqHTp0qFSpkq+vLyvnJA+TaV9+LLXuiSm2r93/bdu2sXW6BHSB2BVUbEdtULyRxMTE2rVru7u7s3IxtROlNih5B1JSUqjO4sWLWYUePXr07t2brat1jCxbtox+ZtjA6Vrzx+9qu/BzZWdnR+uKH0pXO2liaudEcbw//vgj6yGdGX6lLl26RJvo3zp16tSrV4/Om6Oj4/79+3n74msaGRkpaA5K8eSrDUStXEKtWcUxCsZ9TQEAwBggoAKAAV7yvX/79m0nJye60509e7Z0m+4Oku5c2fONHTt2lClThj1FkX+gV1JCO9Kd6P3792k9KCjI2to6Jibm7NmzdCfKn6ukpaXx+lxWVhZb8fb2pijL1tlTHUEXcfv06TNlyhT2srF6aFTsADVev379SZMmsTqjR49+9913c3QoFQ8fPpyNjqqlpqY+b/UfGsdS6x6n1r5GmzyKhIaG0gVycHCgK6jYjtqgeCNJSUl169ZVvL6CyokSVAal2AFaOXnyJF1Z6urChQsp2FC8YVvVOkboZ7J9+/Zsnf/waOzCT8izZ89oxxkzZrA6YoonTbGO/Jwojpdr2bKl+EpRl1xdXadPn85e7tq1iw7HfrAl11TIa1CKJ19tIGrlEmrNKo7RyK9pnorm20EAAIxW0UyDCKgAYICXee/TbTrlT0qnPXr0oHtE6WbdHSTty9bpDpVqsg/+6RNQ586dK966fPlyuj+2sbH56aefoqOj+aaMjIzk59hta1hY2O7du7t16zZu3DhWh8qPHDlCPZkzZ07Pnj35p5G1A568A5cuXaIhsA8hE7prp5fXr1+/evUqrdDZ4PXlqEHKM2HPOTs782OpdY9Ta1+7/3TvTpmhefPma9asqVKlCl1BxXbUBsUaWbJkSb169UaMGCHeRUzxRAkqg1LsALNo0SLqJEUaCjasRKNjZN68efxE8R8ejV2on+7u7nTmfX19q1evvnfvXlZHTPGkyesonhPF8XKSgHrt2jXqGGW/iOfs7e1PnDghyK6pkNegFE++2kDUyiXUmlUco5Ff0zxpT4AAACavaKZBBFQAMEC+3/sXL16km0K6WRwwYIDir4MKL95tP3nyhCpfuXJFkMVReQnt+Oeff/KX3bt3nzZtGq0cPHiwa9eutra2NWvW9PT0pBIPDw+759ijmylTpnTu3Jkq8E8zUn5u2rTprFmzli5dOnDgQEoLrFw74Mk7EBgYWLx4cV7IRkQ335Q0xOWKqMFGjRp1eY6GwI+l1j1OrX3t/tPwV61a1apVK8oVLIootqM2KEHXiI2NDUV92p09T5NTPFGCyqAUO8AkJCTQsdq2bctLNDpGxo4dO3jwYLbOf3g0dmmsQ2fexcWFOnb+/HlejVM8afI6iudEcbycJKDSebC0tOQ/DExISIggu6ZCXoNSPPlqA1Erl1BrVnGMRn5N86Q9AQIAmLyimQYRUAHAAPl77//1118ODg50p/jdd9/xT+jJie+2xQG1RYsWa9euFdeUlNCO/AOQ5J133vn999/5y6dPn9ItsrW1tcaXo0RGRlKFlJSUmJgYCgO8JjWrZ0CVd4A9LEpMTGSFUVFR7GVcXBytSL5ORkLtWBrd49TaV2uTbVq2bJmjo2NERAS9ZFFEsR21QbFGKDPQyqBBg/r27Svei1M8UWqDUuyAoPsYp5ubG2WeqlWrrlixghVqdEzQ/cAsWrSIrfMwo7ELy2asfO7cua6urmxdTPGkyevIz4naeDlJQGXnQfFLpyTXVMhrUPKTz8oVB6JWLqHYrNoYjfya5kl7AgQAMHlFMw0ioAKAAfL33i9TpgzdJpYoUaLZc506dRJXYMR32+KA2qtXr//973/sl9YYSQntSHfP7A6eQlfJkiVZDrx8+TKr8Pfff1tZWUn+dCodgpccPHiQAmp6enp8fDwdlz1doaM7OTnpGVDlHaAoTiMdNWoUrdD9d//+/du1a8fqt2/fvk+fPuwrUukmXv6JR7VjaXRPTLF9tTbZpsqVK7MoJYiiiLwdjUHxAJCamlqtWrUNGzawcjHFE6UxKHkHaGXatGkNGzakwmPHjtnZ2Z05c0bQfaBUrWP+/v42Njb8VyJ5mNHYhY8lMzNzxIgRrVu3ZuViaidNTPGcaIyXkQRU0rFjR8q3jx49EnTdPnr0aJbu16cl15Rt1RiU/OSzcsWBqJVLKDarMUZjvqZ50p4AAQBMXtFMgwioAGCA/L33KZpavKhChQriCoz4blscUCle1qtXj+5H27Rpw7ZKSmjHMWPGVK9evXbt2ra2tmvWrGF1HBwc2Pd20sqqVav+Ocxz165dK1++PN0WU1PUH/6Z4YkTJ5YqVap+/frU2rfffqtnQJV3QNB9sLlRo0ZvvPEGtU/3zVevXmXl169f79ChQ+nSpevWrUt9O3ToECvnNI6l1j0xxfY12qRN1En+XU08iii2ozYoHgBIQEBAuXLl5F+Uqnai1AYl78CRI0fKlClDfWAV3N3d3377bfYfDYod27Vrl6WO/XNWVlZ0rD179qjtIuj6Sd2jyjQKSjhnz55l5WJqJ01M7ZyojZeRB1RKcd27d6fzQIOlRpo0acI+Jy+5pozGoBRPvtpA1Mol1JpVG6MxXNM2LV33zlj89J7CF6dpK5pvBwEAMFpFMw0ioAKAAYzzvc9u0zMyMujeVPxtvVlZWZQHLl++LP4jomJ0lx8dHR0TEyP5tdg7d+7QXuwhlT7UOsBQupD8nVUmJSXl0qVL4r/fqCc9u5fv9iUU21EblDaNE6UxKMUOqJF0bPv27cOHDxdtzzVkyBAezgXZLkVDY7xqKLNFRUWp/X6vhHxQGif/ZWg0qzHGV35N7wSG76zwwfHPZyYH5z6tBQAA44GACgAGMM73vuJzpKL0yjvwuij6E+Xv7z9nzhxJ4axZswIDAyWFJq+QTn4hNauhoK5p4q4gL+vWnpYt99Xvf3nxtnw8UAUAgMKAgAoABjDO9/64ceMCAgKkpUXolXfgdYET9QoV0skvpGaLRqJvoFfxVt5l2u9vOGBH2Q54oAoAYAwQUAHAAHjvA4ApYRmV5i5PS9d99frtqtodD1QBAF4tBFQAMECe730sWLBgea0X7zLtc/+175i0P0S+VbJIJ0EAAJOGL0kCAKOD9z4AmJLcb0ty6LSjVNt/MmexlhRNT49byJ6g5jnjSYsAAExa0cx7CKgAYAC89wHAZLB06mXTOjeaWrkebD40ae/f4gp5znjSIgAAk1Y08x4CKgAYAO99ADANlE63l2znofs0L39kKpHnjOfu7r5mzZrg4GDpNgAAU6Q9KxYUBFQAMADe+wBgAiideju8f9j1S8kjUwnMeAAAYtqzYkFBQAUAA+C9DwCvu/Sk5JjVPoqPTCUw4wEAiOFLkgDA6OC9DwDmAzMeAEDRQ0AFAAPgvQ8A5gMzHgBA0UNABQAD4L0PAOYDMx4AQNFDQAUAA+C9DwDmAzMeAEDRQ0AFAAPgvQ8A5gMzHgCAGL4kCQCMDt77AGA+MOMBAIhpz4oFBQEVAAyA9z4AmA/MeAAAYtqzYkFBQAUAA+C9DwDmAzMeAICY9qxYUBBQAcAAeO8DgPnAjAcAIKY9KxYUBFQAMADe+wBgPvI34x07dmzWrFkjRowYNmzYtGnTIiIixFvFfH19J0yYMHToUKp24MAB8aZnz55t3rx51KhR1MjixYtTUlL4pq1btx46dEhU1+xkZWXNmTPn/v370g0AUMjwJUkAYHTw3gcA85G/Ga9Lly4WIsWKFfPy8hJXYL755ptKlSpNnz596dKl48aNq1u3Lt+Umprq4uJSp04dd3f3JUuWvPfee5UrV75w4QLbSu1TrOWVzdCTJ0/oxF65ckW6AQBMAgIqABgA730AMB/5m/F8fX3PnTv38OHD8+fPV61alaLURx99JK5AHj9+bGlpeeTIEV6SnZ3N14cPH07p9MGDB+xlTk5O7969GzZsSCuCfgE1JSXlxIkTgYGBN2/eFJfHxcVRIWVd8eFu375940WUAFk59fPu3bsBAQG047+t6Dx9+jQiIuLMmTOZmZm8kJqNjo6mQ1Ajorr/Ym3yl9Q9dixBpW8S8fHxp06dohZYQD179iwdTlxBsVcaA6FNSUlJ/CUdmnrOns3SpvT0dFaekZFB5fQv30utQbUO0O4JCQn8mnKKo1Y7SxpdEnQPlsPDw48fP04/e7xQQn6B1K4+26R2OMV2eOVHjx7RYNm6oDJGMY3zqbavpAN0aPERaQhUzndRvCiCrp/igYvPueIuGtcRChYCKgAYAO99ADAfLz/jtW7dmqLU4MGDJeUUgajcz89PUi7obpptbGzWrl0rLrx06RLVp9txQb+AWq1atRYtWri6upYsWXLBggWscOjQoTVq1OjYseNbb73VvHnze/fusfLGjRs7Ozs3eI6O7uPjw8oHDRpEldu2bVuqVCneDgkLC6NDUAWqX6tWLQrkVHj58uUmTZpUr169Q4cOlSpVoqDO63O0y6ZNm/hL2pcdS61vYjt27LCzs6POfPjhh3Q2PvjgA1qnkuXLl7MKir0SNAdCm4oVK0Y9Zy/pENTykCFD2KZt27ax8pEjR1I5v9BqDWp0gJ1h6i2tx8bGsnK1UaudJY0u0U9InTp16tWrR11ydHTcv38/351TvEBqV59tUjycWjuscmJiYu3atd3d3dmOamMUUzufavvKO5CSkkJ1Fi9ezCr06NGjd+/ebF3topBly5bZ2tqygdM7Zd26ddq7qF1HKHAIqABgALz3AcB85HvG8/T0ZM88WY6iW3ZJBfLFF19QGKA76Z9//vns2bO8PDQ0lPY6f/68qG6usmXLsvtvfQJqVlYWW/H29n7zzTfZOn/YlZ2d3adPnylTprCXGnGI1tnjxKCgIGtr65iYGEHXeP369SdNmsTqjx49+t1336U2KRIPHz6cPbaiOqmpqbxNTu1Yan3jnj17RpmBRSA64XSKWJyg0F66dGnqpGKv2DNntYGwTdTtcePGsZdubm4uLi6SgEpXxMnJycHBQRxQ5Q1qd4A1RaNo3779jBkzWB21UaudJbUu0VFcXV2nT5/O6u/atYu2ip8HsjqKF0jtWGyT/HAa7VDlpKSkunXrzp49mzeoNkYxxfMpqOyr1oGTJ09SbqSuLly4kMIq+7VtjYtC6M1Ll4OtN2vWjP1Eaeyidh2hwCGgAoAB8N4HAPOR7xnvl19+qVixoqWlJeUourM/evSopAJDQYLus99++22q9sknn7BUSTfo9PL69euSylWrVp0/f76gFFAzMjKSn+M332FhYbt37+7WrRtPX7TpyJEj1OE5c+b07NmT2mHlahGFyufOncvL6Q6ePatkj3Pv3LnDyilL0Mvg4GD6V/xxWUXUJqWXsOecnZ3ZsdT6xkVGRtL5pGAgyH4HtVKlSvv27VPsFTuNagNhm1asWFGlSpWHDx+eO3eOXk6cOFEcUCkFNW/efM2aNVRHHFDlDWp3wN3dncbr6+tbvXr1vXv3sjpqo1Y7S2pdunbtGh2LfnIinrO3tz9x4gRrjbl69ariBVK7+myT/HAa7SxZsqRevXojRowQl6uNUUzxfAoq+6p1gCxatIg6STGVwior0bgoZN68ebw/PKBq7KJ2Hc0KviQJAIwO3vsAYD5ecsa7d+9ehw4d6O62du3a0m0vohaKFy++ZcsWWo+OjmZ5T1whMzPTyspq8+bNglJA9fDwsHuOP7ecMmVK586da9asyT+l2aNHj6ZNm86aNWvp0qUDBw5s2bIlK1eLKFT+559/8vLu3btPmzZN0D20pN7ychYXf//9d3GhGmqzUaNGXZ6ztbVlx1LrGxcQEFC2bFm2Lgmo9evXX79+vWKvWFBRGwjbRGP/5ptvKKaOHDnyjz/+kATUVatWtWrVipKSJKDKG9TuAKHxuri40DD543G1UaudJbUuUTSl9M7rMyEhIf90RYfqKF4gtavPNskPp9GOjY1Nt27dqJr4C5bVxiimeD4FlX3VOkASEhKoD23btuUlGheFjB07ln/8ngdUjV3UrqNZ0Z4VCwoCKgAYAO99ADAf+Zjxnj17Jv5WlcmTJ9Pdrdr9tBgFA/4QiVLl119/Ld66YcMGuvNmT3W6yAKqhsjISGtr65SUlJiYGMow/Mtdpk+frk9A5Z8aJe+88w6lUOH5Iyz+ueWoqCh2B0//yr9LSULxWBp94y5evFisWDH2JT2SgFqxYsUDBw4o9oq9VBsI20T9ocbr1Knj7Oycnp4uDqjLli1zdHRkfyhIElDlDWp3gP83AV1lV1dXQfdoTm3UimeJlSt2iU47HUv8LUFyrI78Aqkdi22SH06jHcp7tDJo0KC+ffuyQo0xiimeT7V91TqQlZXl5uZGObZq1aorVqxghRoXhbRo0WLRokVsnQdUjV0Ur6O50Z4VCwoCKgAYAO99ADAf+ZjxYmNj33jjDUo406ZNGzp0KKVKC92voYr2y3X37t158+bdunWLvfTz87OysuJ/3XT79u2048aNG9nndY8fP16pUiX+C28UUEeNGsU/00v4b5wylN/497gePHiQAirlrvj4eIvnv9pK0c7JyUmfOESZhMUeKilZsiS7Tade0d089YFW6ND9+/dv164dlbdv375Pnz7sq1wpVyh+CFPxWBp94+hAlNtXrlxJ615eXlR/4cKFgq5j5cqVS0tLU+uVoD4Qton158cff1y9ejWtiANq5cqVWegSZAFV3qB2B1iwyczMHDFiROvWrQXdNxKrjVrxLLFytS517NiRYuGjR48E3QU6evSo5KdCULlAasdimxQPp9YOG2Nqamq1atU2bNggaI5RTPF8auyr2AF6xzVs2JAKjx07Zmdnd+bMGUH9Z5X4+/vTu4z/misPqBq7KF5Hc6M9KxYUBFQAMADe+wBgPvIx41HmrF69usVzJUqU+OKLL3gQ5VJSUuiut3jx4o6OjuXLly9btuxPP/0krrB161ZnZ2cHBwdKCMWKFVuwYAELq4Ls76xayL5R6dq1a9Qm3azXq1evQoUK/LtJKXqVKlWqfv36tWvX/vbbb/WJQ2PGjKHhUH1bW9s1a9bwOhcvXmzUqBFFcWqf7uavXr1KhdevX+/QoUPp0qXr1q1LPed5W0ztWGp9E6PQZW9vX6dOnYEDB9KoKTnQOnXM09OTVVDslaA5EEl/hBcDKjXFPzItCaiKDWp0gKpR5ylL03Xn34mlNmq1s6TRJQpp3bt3p5P/9ttv01GaNGki+ZMqgsoFUjsW26R4OLV2+NPFgIAA6gP7klu1MYqpnU+1feUdOHLkSJkyZej8swru7u50Hth/0yhelF27dlnq2D9nZWVFx9qzZ4/aLoL6dXwdpSclx6z2eXovTbohL9qzYkFBQAUAA+C9DwDmI98z3p07d+geNz4+Xh4SxNLT06Ojo+Pi4th3/0hQIqWoGRwc/Oabb/LvFNUTHZdajomJkXSAOnb58mX5szVFLLpkZGTQWNLSFG5kKRRJ/s6qoMvely5dknyFrD706duTJ08SExP5R3wp+bNnhmLyXuU5EENpNyjvgAZ9Rq0/imRRUVHiXwGVy/cFktC/nTzHqHE+NfbVvwOC7KJs3759+PDhou25hgwZwsO5INvF9NwJDN9Z4YPjn89MDs592qwnfEkSABgdvPcBwHwYyYwXGRn56aefnjp1SrqhkMmfLhoJye+g5qnAB1LgDZq5oj+f/v7+c+bMkRTOmjWL/alh85G0J9jLpo2nZct9/+l/efG2fDxQLSQIqABgALz3AcB8mPmMN27cuICAAGmpEcjMzOzWrZvi77gqKvCBFHiDZg7n8xW64X3Uy8rV16nroRZDve07GvpAtZAgoAKAAfDeBwDzgRkPAEwey6g0oW0v2e6wy7DdNT5+5Q9UEVABwAB47wOA+chzxsOCBQsW01t8K3Wlf73tOybtD5FvlSzSmbEgIKACgAHw3gcA84EZDwBM3p3AcJ+KH/g5d+OZ06tk278//eFxfO7Xj+c5DUqLCgICKgAYAO99ADAfmPEAwLSxdOpT4YPcaFqs5Z7an8Ss9hVXyHMalBYVBARUADAA3vsAYD4w4wGACaN0usP2PY8XH5lK5DkNuru7r1mzJjg4WLrtJSCgAoAB8N4HAPOBGQ8ATFXu30Et//7Bpl9IHplKvJJpEAEVAAyA9z4AmA/MeABgktKTkmNW++jzPb2vZBpEQAUAA+C9DwDmAzMeAJi5VzINIqACgAHw3gcA84EZDwDM3CuZBhFQAcAAeO8DgPnAjAcAZu6VTIMIqABgALz3AcB8YMYDADP3SqZBBFQAMADe+wBgPjDjAYCZeyXTIAIqABgA730AMB+Y8QDAzL2SaRABFQAMgPc+AJgPzHgAYOZeyTSIgAoABsB7HwDMB2Y8ADBzr2QaREAFAAPgvQ8A5gMzHgCYuVcyDSKgAoAB8N4HAPNRqDPe2rVr5+g8evRIuk0Qtm7dyrbOmzdvw4YN9+7dk9YAACh8hToNqkFABQAD4L0PAOaj8Ga8ffv2WTx38+ZN6WZB6NKlS+PGjceMGTNq1KgWLVrY29tfvHhRWgkAoJAV3jSoAQEVAAyA9z4AmI9CmvFSUlKqVKlSvnx57YA6YcIEtp6Tk9OoUaPJkyfzrU+fPo2IiDhz5kxmZiYvpGZPnDgRGBgobvD27ds3btxISEh48OABL2Tljx8/vnv3bkBAQFxcnHgTvaRGLly4kJ2dzQtZfbZ+//79tLQ0tv7w4cPk5GReTXFfkpWVFR4efvz4carPSqiRGzLi4XDUVHR0NDVLFVgJG5TYkydP+Kb09HS2npGRQZvoX7V2BJUzKW7k0aNHdPb4Jk7jBAoq50HeATqKuHEaBW1iuyh2TND1RzxwflEElV3UfgAA9FRI06A2BFQAMADe+wBgPgppxhs8eHDJkiXXrl2rf0Bt3LgxHYu9DAsLq1atGpU0aNCgVq1a586dY+VU2KJFC1dXV2p8wYIFrJCqOTs7U007Oztaj42N5eWDBg1666232rZtW6pUKV5/6NChNWrU6NixI21q3rw5/2gx1d+0aRNbpx15Wv7ll1+oq9r7Xrp0qU6dOvXq1aNjOTo67t+/nwp//PHHBjp0dNZDQjXZLtzly5ebNGlSvXr1Dh06VKpUydfXVxANirGxsfHx8WH1adO2bdvY+siRI+n0squj2I7ameSNJCYm1q5d293dnZWLqZ1AQeU8KHYgJSWF6ixevJjt2KNHj969ewvqHSPLli2ztbVlA6cLvW7dOlautovaDwCAngppGtSGgAoABsB7HwDMR2HMeH5+fpSaKNcdP35cO6BSnqGMOnbs2NatW3fu3PnOnTuC7lFk/fr1J02axKqNHj363XffpQTLNrFCb2/vN998k63zrPXs2bP27dvPmDGDl1OMuX//Pq0HBQVZW1vHxMTQOn+4l52d3adPnylTpvD6eQZUxX2pb5SZp0+fzjbt2rXLyclJ/NyvZcuWvGUJ2pci9/Dhw9lDRRpgamqq8GJnCA1EHlBDQ0PpQA4ODnR1FNvROJOskaSkpLp1686ePfufw7xI7QQKSudBsQOszsmTJyk6Um8XLlxIYZUiq0bHCP280XVk682aNWMBVWMXtR8AAD0VxjSYJwRUADAA3vsAYD4KfMajPFO5cmUKnBRU8gyobdq0mTdvnru7+7Bhw6pXrx4cHCzonkbSLiysEgpF9PL69evsZVhY2O7du7t16zZu3DhWQvmEWqByX19famTv3r28fO7cuWxd0EWd5cuXC7pMeOTIERrUnDlzevbsycOnPgFVcd9r165RDynCRTxnb29/4sQJtougGVCvXr1K+1JQlJTnGVDp9DZv3nzNmjVVqlShq6PYjsaZpEaWLFlSr169ESNGiHcRUzuBgtJ5UOwAt2jRIuonxVQKq4Jmxwj9SPATzgOqxi5qPwAAeirwaVAfCKgAYAC89wHAfBT4jLdy5UpKDp9//jntOHz4cF0+tZg4ceLff/8tqSn+iC+ZOnVqgwYNaCUwMLB48eK8/MmTJ9QCCzZkypQpnTt3rlmzJv+Ya2Mdas3FxaVp06bnz5/n5X/++SdbJ927d582bZqg+5QpVZs1a9bSpUsHDhxI6ZHXzzOgKu5L0dTS0rLLi0JCQtgugmZApX3Fg+XyDKirVq1q1aoVBUUWUBXb0TiT1IiNjQ3lfNqdPSOVUzuBgtJ5UOwAl5CQQIdr27Yte6nRMTJ27NjBgwezdR5QNXZR+wEA0FOBT4P6QEAFAAPgvQ8A5qPAZ7xly5axUCpBMU9Ss8uLAXXFihVlypQRnj9UTExMZOVRUVHil0xkZKS1tXVKSorwPLCx8rlz57q6urJ1KucfuyXvvPPO77//HhMTQ2GSf5sOVdA/oKrtGxcXRz1U/J4hRiOgsn3lX0GkHVDpJDs6OkZERNBLFlAV29E4k9QI5UBBN9K+ffuK9+IUT6Cgch4UO8BkZWW5ublRjq1atSpdZUGzY6RFixaLFi1i6zygauyi9gMAoKcCnwb1gYAKAAbAex8AzEeBz3g3btw4/NzSpUstdLy8vOLj4yU1KfV98803Dx8+TEtLO336dMOGDXv27CnoPj5KsWTUqFG0Qtmmf//+7dq1E3QPzfgX5B48eJACKvseWp5PMjMzR4wY0bp1a1aHyim8sdxI6a5kyZKUZ6gb1B/2kO3KlStOTk7/n707gY/p3P8HLqssiIgIlQpqLSUtYi/RlvZabuVe1XJbNNSa1v+61aqlXgittih1+dFQ1JJYglZVLYkbYgmS2LIQQiUIkUSIJMj5f81zPfc4W+YkM1lmPu/XvLzOPOc5z3nOM3Oenk/PZMb4gKqxba9evSjmsZ97pW4fOHCA/7msoBlQSc+ePQMCAtixUOpjn5LVDqj16tVj8VJ4GlAFpXbURpI1wgYtOzu7QYMGa9asYeViigMoqI+DvAOsnWnTptGLS+WHDh1ydXWNi4vT6Nj+/fsdHR3537jygKqxidobAMBIJp8GjYGACgA64NwHAOth1hmv2L9BZWttbGwocY0YMYL/msv58+fbtGlTp04dDw8PiiUXL14UDH/qWatWLYo6LVq0oHL+5a6UT1xcXNzc3GrWrEmhJT4+npePHz/ex8enSZMmVCEkJISVT5o0ydnZuWXLllQ+ceJEcUBl7RBKv1WrVmXLFMzs7e0/+ugjjW0pjPXr169atWrNmzenbvj6+op/B0U7oF69etXf35+2bdasmbu7+x9//CEUF1BpZPhXEPGAqtiO4kiyRvhdx4iICOqz/Mtv1QZQUBkHxQ7s27evevXq/Bdug4ODaYhyc3MVO7Zjxw5bAzbyxM7Ojnb066+/CprHovgGADCSWadBNQioAKADzn0AsB6lnPEKMnNSVoTnpf/vZ0JNiFKfJNlS6ktOTk5JSVH8NVEJlvHy8/Mp2PAfNWUyMjKSkpLENzm17d69e+jQoWxZY1vKXQkJCWp/0qktKysrMTFR/N2/JaPYjnwkjaExgIL6OCh2QI2kY5s3bw4MDBStf2LYsGE8nAuyTQBKr5TTYMkgoAKADjj3AcB6lHjGu7Yt8o+OH26r9XpG5EnJqgpCchOyNKKjo8V/jWklTDiARtq/f//s2bMlhTNnzoyMjJQUAphQiafB0kBABQAdcO4DgPXQO+Pl38o6PjJ4S/WetGqz86sVNp2SoKCgiIgIaSkYDQMIVkLvNGgSCKgAoAPOfQCwHsbPeNe2Re5uO3STbScq3FKtR3gFvncKAGA846dB6bpSQEAFAB1w7gOA9Sh2xpv16ZTVnYeEOnejZfYId38N6RQALEax06A5LvwQUAFAB5z7AGA9ip3x1lft8iSXOnXlATXUrtO5OavPzlxJy/QvVcMylrGM5Uq6zJ4K6jaZ58IPARUAdMC5DwDWo9gZb9bkL1YOHLu5Qd8d3v12NfnbJkNGDXPocn13tLQ2AEAlVOw0aI4LPwRUANAB5z4AWA/jZ7xbUXFH/vHllhr+v704eIvrq8ioAGAZjJ8GpetKAQEVAHTAuQ8A1kPvjFeQmZO0cONvLd8Jte0Y5tAVGRUAKju906BJIKACgA449wHAepR4xmM3VLd5vIFvSwKASq3E02BpIKACgA449wHAepRyxivIzElZEZ6Xfku6AgCgkijlNFgyCKgAoAPOfQCwHpjxAMDKlcs0iIAKADrg3AcA64EZDwCsXLlMgwioAKADzn0AsB6Y8QDAypXLNIiACgA64NwHAOuBGQ8ArFy5TIMIqACgA859ALAemPEAwMqVyzSIgAoAOuDcBwDrgRkPAKxcuUyDCKgAoAPOfQCwHpjxAMDKlcs0iIAKADrg3AcA64EZDwCsXLlMgwioAKADzn0AsB4lm/F27tw5+1lHjhwRV+C2b9/+ySefDB8+fNq0ab///rt41cOHD3/++efRo0ePGDFi4cKFWVlZfNWGDRv++OMPUV2r8+jRIxrVO3fuSFcAlIegoKCoqKgHDx4EBARcu3ZNurqSK9k0WEoIqACgA859ALAeJZvxhg0bVuVZ33zzjbgCM27cuLp1606fPn3x4sV0gdusWTO+Kjs728/Pr2nTpsHBwYsWLXr11Vfr1at37tw5trZPnz4Ua3llK0RJgEb1woUL0hUA5SE+Pr5du3YNGzacOnWqdF3lV7JpsJQQUAFAB5z7AGA9SjbjsYA6efLk8KfkUer+/fu2trb79u3jJY8fP+bLgYGBlE7v3r3LnhYVFQ0cOLB169a0IBgXULOyso4ePRoZGXn9+nVxeWpqKhVS1hXv7ubNm38+ixIgK6d+3r59OyIigjb8XysGBQUFsbGxcXFxhYWFvJCaTU5Opl1QI6K6/8Pa5E+pe2xfgkrfJK5cuXLixAlqgQVUCga0O3EFxV5pHAitSk9P509p19Rzdm+WVuXl5bHy/Px8Kqd/+VZqDap1gDa/du0af005xaNWGyWNLgmGG8snT548cuRIbm4uL5SQv0Bqrz5bpbY7xXZ45Xv37olvJCoeo5iubenVkXSYsNFWHAHJAfLXRe2VUnxlNYZCY5WYkdUkA0sncmZmprhCWloafzOovXWLXatLyabBUkJABQAdcO4DgPUo2YzHAurUqVM3btx4+PBh8eUvR1eKVGfnzp3SFYYLdEdHx1WrVokLExMTqT5dtgrGBdQGDRp06NChU6dOTk5O8+fPZ4XDhw9v1KhRr169GjZs2L59e37h27ZtW29v71ZP0d4pVLPyoUOHUuVu3bo5OzvzdkhMTAztgipQ/RdeeOH06dNUmJSU5Ovr6+Pj4+/vX7du3e3bt/P6HG2ybt06/pS2ZftS65vYli1bXF1dqTNvvfUWjcYbb7xBy1Tyww8/sAqKvRI0D4RW2djYUM/ZU9oFtUyvIFtFryArHzVqFJXzF1qtQY0OsBGm3tLy5cuXWbnaUauNkkaX6B3StGnTFi1aUJc8PT13797NN+cUXyC1V5+tUtydWjusMiWoJk2aBAcHsw3VjlFM17Z0ZrGu0sjznicaKI6A5ADPnj0raL5Siq+s2lBorxIzppp8YOltQN1j/2dKMNyqdXBwoPApaL51i12rS8mmwVJCQAUAHXDuA4D1KNmMJ/mIL10002WluALz/vvvUxjo37//119/La5w/Phx2urMmTOiuk/UqFFj4cKFgnEB9dGjR2xh69atzz33HFtm92QEw+2UgICAKVOmsKcacYiW2V2XgwcP0pVxSkqKYGi8ZcuWkydPZvXHjBnzyiuvUJsUiQMDA9mdLqqTnZ3N2+TU9qXWN+7hw4eUKNglPg04DdHq1atpmUJ7tWrVqJOKvWJX9moHwlZRt4OCgtjTHj16+Pn5SQIqvSJeXl7u7u7iTCJvULsDrCk6ip49e86YMYPVUTtqtVFS6xLtpVOnTtOnT2f1d+zYQWvF92BZHcUXSG1fbJV8dxrtUOX09PRmzZrNmjWLN6h2jGIl27Zjx4685xojIDlAQeUNrP1WURwKtrnGKrFiqykObH5+fu3atXnNcePGvfPOO2xZ461b7FpdSjYNlhICKgDogHMfAKxHyWa8uXPnUvmmTZsWLVpEF5cUpdq0aSOuwNFlNF2PNm/enOr87W9/Y6mSLovp6dWrVyWVn3/++a+++kpQCqh0FXvrKX6zJSYm5pdffunbty+/SKVV+/btow7Pnj17wIAB1A4rV4soVD5nzhxe3q5dO3avkt3OzcjIYOV0BU9Po6Ki6F/xpwoVUZuUQGKe8vb2ZvtS6xt39uxZW1tbCniC7G9Q69at+9tvvyn2ig2j2oGwVUuXLq1fv35ubu7p06fp6aRJk8QBldJC+/btQ0JCqI44k8gb1O5AcHAwHe/27dt9fHx27drF6qgdtdooqXXp0qVLtC9658Q+5ebmdvToUdYac/HiRcUXSO3VZ6vku9Noh97wLVq0GDlypLhc7RjFSratOKBqjIDkAAWVN7D2W0VxKFgdjVVixVZTG9hPP/100KBBguHvAuig9u/fz8o13rrFrtWlZNNgKSGgAoAOOPcBwHqUfsZbtmxZFQPtv/6iFuzt7devX0/LycnJVQx5T1yhsLDQzs7u559/FpQCKoVh16f4fcspU6b07t27cePG7L4N6d+//8svvzxz5szFixcPGTKEru9ZuVpEofIff/yRl/fr12/atGmC4aYl9ZaXs7i4fPlycaEaapPiep+nXFxc2L7U+sZFRETUqFGDLUsCasuWLX/66SfFXh07dkxQPxC2io593LhxdDU/atSolStXSgIqvYKdO3empCTJJPIGtTtA6Hj9/PzoMPntcbWjVhsltS5RMKP0zusz0dHR/+2KAdVRfIHUXn22Sr47jXYcHR379u1L1cTvdrVjFCvZtuKAqjECkgMUVN7A2m8VxaFgdTRWiRVbTW1gKT9XrVr15s2bq1atatq0Kf8/UOy4FN+6xa7VpfTTYAkgoAKADjj3AcB6lGzGS0xM5MvBwcEsoCr+6Z0YBQN+64ZS5dixY8Vr16xZQ1fw7J5PH1lA1XD27FkHB4esrCy6zKUreP4lPdOnTzcmoPLPTJKXXnqJUqjw9FZPWloaK09ISGDX9/Sv/LuUJBT3pdE37vz58zY2Nux7ZSQBtXbt2r///rtir9hTtQNhq6g/1Dhd+nt7e+fl5YkD6pIlSzw9PWNjY+mpJJPIG9TuAP/fBPQqd+rUSTAED7WjVhwlVq7YJRp22pf2D5ywOvIXSG1fbJV8dxrtTJgwgRaGDh3K7vgJmscoVrJtxQFVYwQkByiovIG13yqKQ8HqaKwSK7aa2sCSN9988+uvv6a3jfj7wDXeusWu1aVk02ApIaACgA449wHAepRsxqOr6jfeeGPy5MkffvghpUq66Ozdu7e4Arl9+/a8efNu3LjBnu7cudPOzo7/uunmzZtpw7Vr17K7JUeOHKlbty7/w0UKqKNHj+af6SX8L04Zym/8W0z37NlDAZUuT69cuVLl6Z+2UrTz8vIyJg7RZTS76KcSJycndhFPvWrXrh31gRZo14MHD+7evTuV9+zZMyAggH1VKeUK+YcVBZV9afSNox1Rbv/3v/9Ny2FhYVT/u+++Ewwdq1mzZk5OjlqvBPUDYatYf6ZOnbpixQpaEAfUevXqseAkyDKJvEHtDrCAWlhYOHLkyC5dugiGbyRWO2rFUWLlal3q1asXRbt79+4JhhfowIEDkneFoPICqe2LrVLcnVo77Bizs7MbNGiwZs0aQfMYxUq2rTigCuojIDlAtlbjlZK/sqxccSi0V4kZU01xYAXD3wLUrl27atWqdLLzyhpv3WLX6lKyabCUEFABQAec+wBgPUo247311lt0KVnFwN7efsSIEfLbp1lZWXRNTGs9PT1r1apVo0aNuXPniits2LDB29vb3d2dLmptbGzmz5/PP9pHAZU1zkm+UenSpUvUZuvWrVu0aOHh4cG+TEgwXKE6Ozu3bNmySZMmEydONCYOjR8/3sfHh+q7uLiEhITwOufPn2/Tpk2dOnWofbrWv3jxIhVevXrV39+/WrVqzZo1o57zvC2mti+1volR5HBzc2vatOmQIUPoqClX0DJ1LDQ0lFVQ7JWgeSDy9CIOqNQU/8i0JJMoNqjRAapGnacsTa87/04staNWGyWNLlGY6devHw1+8+bNaS++vr7yr49WfIHU9sVWKe5OrR1+lzgiIoL6wL6sWO0YxUq2rSSgqo2A/CUWNF8pxVdWbSi0V4kZU01xYAXD/52h2eC9994TV5Yfl2JAVVyrS8mmwVJCQAUAHXDuA4D1KPGMV1BQkJqaeuHCBVqQrBLLy8tLTk6mmuy7fyQokVLUjIqKeu655/g3jhqJLs2p5ZSUFElKycjISEpKkt9bU8SucfPz8+lqPicnR7raEAkkv7MqGLJ3YmKi5CtkjWFM3x48eMB+B7KK4SO+N27cYHfMxOS9KvZA9NJuUN4BDcYctfFyc3MTEhK0/+C5xC+QhPHtlOYY9W5rzAhw8ldK+5UtG/KBpYOqUaPGwYMHRbVKKy/9VsqK8ILM4o+xxNNgaSCgAoAOOPcBwHpUkBnv7Nmzf//730+cOCFdYWbymzAVhORvUItl8gMxeYNQQVTAV5aml6FDhyreeS6ljMiT22q9vr/HmJsHYqTrRMplGkRABQAdcO4DgPWw8hkvKCgoIiJCWloBFBYW9u3bV/FvXBWZ/EBM3iBUEBXwlR04cGBgYCD7zLPJUUbd7NSdprJtHm/Ef75U8YZquUyDCKgAoAPOfQCwHpjxAMCyPbmPWvO1MIcuNKGF2nfe13WU5IZquUyDCKgAoAPOfQCwHpjxAMDisYy62akbzWlPYqpdJ/EN1XKZBhFQAUAHnPsAYD2KnfHwwAMPPCzvQRmV/t1So1f67uhNxU2D5rjwQ0AFAB1w7gOA9cCMBwAW7+b+mM1Vu7Jous3jjfA6fXY1+3vSwo24gwoAlQPOfQCwHpjxAMCysXQaatdpZ4MBm6v1PPKPL29FxYkrlMs0iIAKADrg3AcA64EZDwAsGKXTMIcuobYdxbdMJcplGkRABQAdcO4DgPXAjAcAlor9Dqr8lqlEuUyDCKgAoAPOfQCwHpjxAMAi5aXfSlkRrnjLVKJcpkEEVADQAec+AFgPzHgAYOXKZRpEQAUAHXDuA4D1wIwHAFauXKZBBFQA0AHnPgBYD8x4AGDlymUaREAFAB1w7gOA9cCMBwBWrlymQQRUANAB5z4AWA/MeABg5cplGkRABQAdcO4DgPXAjAcAVq5cpkEEVADQAec+AFgPzHgAYOXKZRpEQAUAHXDuA4D1wIwHAFauXKZBBFQA0AHnPgBYDzPNeEVFReHh4R9//HFgYOD06dMPHz4srSEIGzZsmG0wb968NWvWZGZmSmsAlEJQUFBUVNSDBw8CAgKuXbsmXQ3wlJmmQW0IqACgA859ALAe5pjx8vLyXn/99SoGNjY29G+fPn2klQSBCtu2bTt+/PjRo0d36NDBzc3t/Pnz0koAJRUfH9+uXbuGDRtOnTpVug5AxBzTYLEQUAFAB5z7AGA9zDHjffbZZxRKGzVqdPz48UePHl29evX333+XVjIE1E8++YQtFxUVtWnThjbkawsKCmJjY+Pi4goLC3lhVlbW0aNHIyMjr1+/zgtv3rz5559/Xrt27e7du7yQld+/f//27dsRERGpqaniVfSUGjl37tzjx495IavPlu/cuZOTk8OWc3Nzb926xaspbkvoSE+ePHnkyBGqz0qokT9lxIfDUVPJycnULFVgJeygxB48eMBX5eXlseX8/HxaRf+qtSOojKS4kXv37ineYNSoIx8E7YOVD44gO0ZWWa23ai+l2miolUsYWU0ysPQ+lNzwT0tLYy8QNZiens7LaUPahAaHPdVeC+XFHNNgsRBQAUAHnPsAYD1MPuNR1PTw8KCAun79+oSEhPj4eMUrfkEWUNu2bUv7Yk9jYmIaNGhAJa1atXrhhRdOnz7NyqmwQ4cOnTp1cnJymj9/Piukat7e3lTT1dWVli9fvszLhw4d2rBhw27dujk7O/P6w4cPp/Dcq1cvWtW+fXueNKj+unXr2DJtyNPyN998w+8Aq22bmJjYtGnTFi1a0L48PT13795NhVOnTm1lQHtnPSRUk23CJSUl+fr6+vj4+Pv7161bd/v27YLooBhHR8fw8HBWn1Zt3LiRLY8aNYqGmr06iu2ojSRvhJJVkyZNgoODWbmYWh3FQdA4WMXBYe2Lj/Hs2bMavVV8KdkqxdFQK5cwppp8YOl9Qt2jNy2rQG9yBwcHCp+CoUEbGxvahK3asmULtTls2DD2VHstlBeTT4PGQEAFAB1w7gOA9TD5jEf5kH24l5IGW6BMsmvXLmk9Q0Cl637KqBMmTOjSpUvv3r0zMjIEw922li1bTp48mVUbM2bMK6+8wsIArWKFW7dufe6559gyzxgPHz7s2bPnjBkzeDmlCHZ76uDBgxQhUlJSaJndBBMM968CAgKmTJnC6xcbUBW3pb5RZp4+fTpbtWPHDi8vL34zlnTs2JG3LEHbUuQODAxktyLpALOzs4VnO0PoQOQB9fjx47Qjd3d3enUU29EYSdZIenp6s2bNZs2a9d/dPEutjuIgcJKD1RgcyTFq91bxpWSr5KOhUS5RbDXFgc3Pz69duzavOW7cuHfeeYctU4NUPygoiD3t0aOHn5+fOKBqrIXyYvJp0BgIqACgA859ALAeJp/xzpw5w3Jp/fr1f/zxR7pwp+UaNWrcvn1bUpNSX9euXefNmxccHDxixAgfH5+oqCjBcMONNmFhlVAUoadXr15lT2NiYn755Ze+ffvyq3y66KcWqHz79u3UCA/DVD5nzhy2TNq1a/fDDz8Ihsixb98+OqjZs2cPGDCAh09jAqritpcuXaIeUnCKfcrNze3o0aNsE0GW2cQuXrxI24o/9skUG1ApL7Vv3z4kJITGmV4dxXY0RpIaWbRoUYsWLUaOHCneREytjuIgcJKD1RgcyTFq91bxpWSr5KOhUS5RbDXFgSWffvrpoEGDaIHCNh3R/v37WTk1uHTpUmonNzf39OnT9HTSpEnigKqxFsqLyadBYyCgAoAOOPcBwHqYfMa7du0aC6iUXgTDnyayp/I/QxV/xJd88cUXrVq1ooXIyEh7e3te/uDBA9r82LFj7OmUKVN69+7duHFj/snMtgbUmp+f38svv0wJmZdTQmbLpF+/ftOmTaOF/v37U7WZM2cuXrx4yJAhFKh4/WIDquK2lL5sbW37PCs6OpptIsgymxhtKz5YThLe5AF12bJlnTt3pqzIMpViOxojSY04OjpSzqfN1f4GUq2O4iBwkoPVGBzJMWr3VvGlZKvko6FRLlFsNcWBFQz5uWrVqjdv3ly1alXTpk35x33ZQY0bN46C6KhRo1auXCkJqBprobyYfBo0BgIqAOiAcx8ArIc5Zjy6yqdowT4UmpmZyQLqkSNHJNX6PBtQ6ZK9evXqwtN7Vmlpaaw8ISFB/JQ5e/asg4NDVlaW8DRjsPI5c+Z06tSJLVM5/2Qpeemll5YvX065gvIS/zolqmB8QFXbNjU1lXqo+D1DjEZAZdtKvvhHkIU3SUBdsmSJp6dnbGysYBhtenUU29EYSWpkwoQJguFI2Z1AOcU6aoPASQ5WY3Akx6jdW/lLyZYVR0OjXKLYaooDy7z55ptff/01vd/oHcIL2UGdP3+eUqu3t3deXp48oKqthfJijmmwWAioAKADzn0AsB7mmPHmz59P1/TPPfccZc6BAwfScosWLeRflUSpb9y4cbm5uTk5OadOnWrduvWAAQMEwydI27VrN3r0aFp49OjR4MGDu3fvLhhuqfHvgN2zZw8FVPb9qzygFhYWjhw5skuXLqwOlVPeYNGI0p2TkxOlnStXrlB/2F3WCxcueHl5GR9QNbbt1asXRbh79+4Jhv4fOHCA/7msIMtsEj179gwICGDHQsGPfZpUO6DWq1ePRUdBlKnk7aiNJGuEDVp2dnaDBg3WrFnDysUU62gMAiM/WLXBkRyjdm/lLyVfpTgaauUSxlSTDywr37FjR+3atatWrSr+kmd+UFOnTl2xYgUtyAOq2looL+aYBouFgAoAOuDcBwDrYY4ZjwIGpTu6cK9i0K1bN/61pWKU+lgFGxsbCgkjRozgF/rnz59v06ZNnTp1PDw8KLRcvHhRMPw1Y61atSjHUtyl8tWrV7PKdNHv4uLi5uZWs2ZNijTx8fG8fPz48T4+Pk2aNKEKISEhrJwigbOzc8uWLal84sSJ4oDK2iGUfqn/bJnikL29/UcffaSxLYWWfv36VatWrXnz5tQNX19f8a+kyDOb2NWrV/39/WnbZs2aubu7//HHH4IsvEkCKo0M+y4lQZSpFNtRHEnWCL/tHBERQX3m337MqdVRGwRGfrBqgyM5RkGzt4ovJVulOBpq5RLGVFMcWMHwhUne3t7vvfeeuLL8oBQDquJaKC/mmAaLhYAKADrg3AcA61HKGa8gMydlRXhe+v/uIHH37t1LSEhgn8ItGQo24t87FQz3SJOTk1NSUhR/TVSChYH8/HyKPfxHTZmMjAzKzOKbnNp27949dOhQtqyxbW5uLh2y2p90aqOBSkxMFH/3b8kotiMfyVLSGAQ1xg+OvLcaL2WZkQ8sHVGNGjUOHjwoqgWVUimnwZJBQAUAHXDuA4D1KPGMdysqLvLNT7bVej0j8qRkVQUhv1tVYtHR0eK/gYQyZsKX0lTojBg6dKjk7jFUUiWeBksDARUAdMC5DwDWQ++MV5CZcz74p+1139pk47e5arcKm05JUFBQRESEtBQqoQr4Ug4cODAwMFD+uWiojPROgyaBgAoAOuDcBwDrYfyM9+SWaZ+Pwxy7htp1DrXtuLWGf0VOpwAARip2GgwODg4JCWE/1GwqCKgAoAPOfQCwHsXOeLMmf/Fjv49C3XuFVe1GT+mBdAoAlqTYaZCu+sLCwk6dOiVdVwoIqACgA859ALAexc5466t2YbmUP8LsOid88/PZmStpmf6laljGMpaxXHmXi32sXbuWrvoUv428xBBQAUAHnPsAYD2KnfFmTf5i5cCxYXX7bK35WphjV3a5tsWlO+6gAoCFCQkJ+f5ZVBIWFkaXfKdOnWK/xGsqCKgAoAPOfQCwHsbPeLei4g4PnrrZ+dWt7q8jowKA5YmKitr7LCqhaJqUlETp1LQ/cYSACgA64NwHAOuhd8YryMxJWrjxl0Zvb7LpGObQFRkVACwM+/SvuSGgAoAOOPcBwHqUeMZjN1Qr8u+gAgCUgPasaCoIqACgA859ALAepZzxCjJzUlaE56Xfkq4AAKictGdFU0FABQAdcO4DgPXAjAcAIKY9K5oKAioA6IBzHwCsB2Y8AAAx7VnRVBBQAUAHnPsAYD0w4wEAiOFLkgCgwsG5DwDWAzMeAEDZQ0AFAB1w7gOA9cCMBwBQ9hBQAUAHnPsAYD0w4wEAlD0EVADQAec+AFgPzHgAAGUPARUAdMC5DwDWAzMeAIAYviQJACocnPsAYD1KMONlZ2fPVlJUVCTa9BmFhYVUITU1VboCNL399tubNm2SlgKAOWnPiqaCgAoAOuDcBwDrUYIZ7/Lly1WUPHr0SLTpfz18+HDnzp1TpkyhCv/4xz82bNhA+VZaCVTMnTs3KipKWgoA5qQ9K5oKAioA6IBzHwCsRwlmvPv374eLvPzyyxQ+/f39Rdv9V3x8fMuWLZs0aTJmzBiq88477/j5+dWuXXvbtm3iagUFBbGxsXFxcYWFhbzw5s2btKPbt29HRESIb71SeXp6On/6+PHjP//8886dO3xtXl4eW87Pz6dV9C8rV2xNUN87bXvt2rW7d++K6j5Bm0dGRp47d452zQtZ+/zp9evXHzx4wMoV+8NQpD958uSRI0dyc3N5oVhGRoa42eTk5AMHDpw6dYp3Va3ztFV2dvbBgwevXLnCywHAGNqzoqkgoAKADjj3AcB6lHLGo/xjb29P4XP37t2SVUVFRU2bNn377bcpO1EAozoUDql82rRpzs7OFOFYtZiYmAYNGrRt27ZVq1YvvPDC6dOnWTmVDB06tGHDht26daP68+fP5+U2NjZJSUns6ZYtW6jlYcOG8bUbN25ky6NGjaJVrOdqrWns3dvbmwpdXV1p+fLly6x8+PDhjRo16tWrFzXVvn37zMxMXn/dunVsmVBTFN1ZuWJ/SGJiIo1PixYtqEuenp7yASQdO3ZcufLJn8NRGP7b3/723HPPvfHGG76+vr179xY0O0/7ohLa3MnJ6YcffhC3CQDatGdFU0FABQAdcO4DgPUo5Yw3ceJECl2tW7eWrhCEc+fO0arDhw/Tsjig5uXl2drarl+/XjDcQmzZsuXkyZPZJmPGjHnllVfY37JSyqKIxW6NHjx40MHBISUlhZV36NAhKCiIbdKjRw8/Pz95QD1+/LiXl5e7uzsPqPLWtPfO2nn48GHPnj1nzJjB6vz5559sgRJjQEDAlClT2NNiA6qkP7SXTp06TZ8+ndXfsWMHrRXfLGV4QI2Pj6eozCvk5ORod55CLLv3SwG+evXq4pu9AKANX5IEABUOzn0AsB6lmfGysrKqVatGyXPNmjXSdYJw4sQJWhUXFyc8G1ApWVWtWvXHH38UDHcRqTwjI4NtQqGRnl69elUwpKw5c+bw1tq1a8fuBFL50qVL69evT22ePn2ank6aNEkSUCmPtW/fPiQkhKrxgCpvTXvvwcHBMTEx27dv9/Hx2bVrF6tDCXDfvn00ILNnzx4wYECfPn1YOdWfNWtWzFPe3t7igCrvz6VLl2hfFJVjn3Jzczt69ChrjeMBlYKxo6Pj3Llzk5OT2SrtzlMPWTm9RlR+7do19hQAKggEVADQAec+AFiP0sx48+bNo/BDoUv8B5Dc/fv3q1evTrFNeDag/vLLL7TMPo8aGRlpb2/PN3nw4AGtOnbsmGBIWSzEMv369Zs2bRorX7du3bhx4yimjho1ivKbPKAuW7asc+fOFCbFAVXemvbeCeVPPz+/l19++cyZM6xO//796enMmTMXL148ZMgQCpCsnCq3adOmz1MuLi7igCrvD0VTW1tbXp+Jjo7+b1ee4gGV7Nmz580336SWGzduHBoaqt15fjuXlV+4cIHXBICKAAEVAHTAuQ8A1qPEM15BQUG9evUo/HzzzTeSVVxISIiTk9PYsWO3bdtGNb/99ltqjVLrJ598wipcvHiRytPS0tjThIQE/pRSFv8ELHnppZeWL1/Oyil9nT9/vmnTpt7e3nl5eZKAumTJEk9Pz9jYWHoqDqjy1rT3zv92dM6cOZ06dRIMdykpVfKvTaIGxQFV7SO+iv1JTU015samOKAyNOyUjR0cHOLj4zU6j4AKUMEhoAKADjj3AcB6lHjGW7VqFSWfGjVq5OTkSFaJUZIcP358hw4dqDJFyg8++ODAgQN8bVFRUbt27UaPHk0Ljx49Gjx4cPfu3dkqSlkU51iEo7BHQVeSvqZOnbpixQpakARUis0TJkxgT8UBVd6a9t5ZQC0sLBw5cmSXLl0EwzdC0VGwu6kU+by8vIwJqIr9Ib169Ro0aNC9e/cEwzjQsMh/p4cHVAq0/HuhDh8+bGdnRzlZo/MIqAAVHAIqAOiAcx8ArEfJZjwKRa1ataLk8+mnn4rL1Yg/4itBCbZNmzZ16tTx8PCgxHXx4kVWTimLkq2Pj0+TJk1cXFxCQkJ4uTgKCrKASk3xn1oVB1TF1jT2TtXc3Nxq1qxJwS8+Pp6V076cnZ3Zb+dMnDjRmICq2B+Snp7er1+/atWqNW/enPbi6+sr/6Q0D6gUSt3d3dkXC9PCsmXLBM3OI6AClBi+JAkAKhyc+wBgPSrIjEdpjf/wDMNSVn5+PsUw7Zu0xtBuTb53DRkZGUlJSfK7nSVD0T0hIYH/jqsEpdYNGzawZdrj5cuXadfsF1Y5XZ0HgGJpz4qmgoAKADrg3AcA61FhZzz5ndLSMG1rZSArK2v16tVVq1ZNTEyUrgMAc9KeFU0FARUAdMC5DwDWo8LOeEFBQYofCS4Z07ZWBs6dO/fuu++GhYVJVwCAmWnPiqaCgAoAOuDcBwDrgRkPAEBMe1Y0FQRUANAB5z4AWA/MeAAAYviSJACocHDuA4D1KHbGK9+HtEMAABYBARUAdMC5DwDWoyLPeNp9AwCovBBQAUAHnPsAYD0q8oyn3TcAgMoLARUAdMC5DwDWoyLPeNp9AwCovBBQAUAHnPsAYD0q8oyn3TcAAHPAlyQBQIWDcx8ArEdFnvG0+wYAYA5lM/MgoAKADjj3AcB6VOQZT7tvAADmUDYzDwIqAOiAcx8ArEdFnvG0+wYAYA5lM/MgoAKADjj3AcB6lHLGK8jMSVkRnpd+S7rCFLT7BgBgDmUz8yCgAoAOOPcBwHqUeMa7FRV3KOCzbbVez4g8KVllKtp9AwAwB3xJEgBUODj3AcB66J3xCjJzEr/bsPP5/pts/MIcu5ovnQrF9Q0AoPJCQAUAHXDuA4D1MH7GY7dMw5y6b3Z5lcq3VOth1nQqFNc3AIDKCwEVAHTAuQ8A1qPYGW/W5C9Wvj02rM4bW6r3DLXtSCVlk06F4voGAFB5IaACgA449wHAehQ745XvQ9ohAACLgIAKADrg3AcA61HsjDdr8hc/vj0mrPbrm12ffLL3ycPGb2v1nmVwBxUAoOzhS5IAoMLBuQ8A1sP4Ge9WVNx//vppWNVuYU7dkVEBwFJpz4qmgoAKADrg3AcA66F3xnvyLb7f/rzDu18ZfIsvAEDZ054VTQUBFQB0wLkPANajxDMeu6Fq1t9BBQAoe9qzoqkgoAKADjj3AcB6lHLGK8jMSVkRnpd+S7oCAKBy0p4VTQUBFQB0wLkPANYDMx4AgBi+JAkAKhyc+wBgPTDjAQCUPQRUANAB5z4AWA/MeAAAZQ8BFQB0wLkPANYDMx4AQNlDQAUAHXDuA4D1wIwHAFD2EFABQAec+wBgPTDjAQCI4UuSAKDCwbkPANYDMx4AgJj2rGgqCKgAoAPOfQCwHpjxAADEtGdFU0FABQAdcO4DgPXAjAcAIKY9K5oKAioA6GCOc7+oqOj333//17/+NWzYsH/+85+//vorlUgrCcKGDRtmG8ybN2/NmjWZmZnSGtbh7bff3rRpk7QUwAoEBQVFRUU9ePAgICDg2rVr0tVmYI4ZDwCg8tKeFU0FARUAdDDHuT958uQqBrVq1WILH3/8sbSSIPTp06dt27bjx48fPXp0hw4d3Nzczp8/L61kBebOnUvX6NJSACsQHx/frl27hg0bTp06VbrOPMwx4wEAVF74kiQAqHDMce6zXDpz5kxa/vrrr2nZ1dVVfhOVAuonhPynMwAANfJJREFUn3zClmltmzZtPvvsM762oKAgNjY2Li6usLCQF2ZlZR09ejQyMvL69eu88ObNm3/++ee1a9fu3r3LC1n5/fv3b9++HRERkZqaKl5FT6mRc+fOPX78mBey+mz5zp07OTk5bDk3N/fWrVu8muK25NGjRydPnjxy5AjVZyXUyJ8y4sNhMjIy+H6Tk5MPHDhw6tQpcTXFoWC9zc7OPnjw4JUrV3i5HPWTmqU+0955oWKbEvIN2VCLPXjwgJXn5eWxOvn5+VRO/2q3w+vfu3dPfOtMsWNUPz09nT+lBqkpGl5ewul90QVZ96hj4v7QAVI530Sxe4LhKMTDwl9QQWUTtTetmPaoMhojKT9ejTek/N0ryF5u3n+1I1IbebUDUSs3K3PMeAAAoA0BFQB0MMe536RJEwqlixcvpuUVK1bQsre3t7SSLKC2bduW9sWexsTENGjQgEpatWr1wgsvnD59mpVTYYcOHTp16uTk5DR//nxWSNWofapJMZiWL1++zMuHDh3asGHDbt26OTs78/rDhw9v1KhRr169aFX79u35R4up/rp169gybcjT8jfffENd1d42MTGxadOmLVq0oH15enru3r2bCqdOndrKgPbOekioJtuE69ix48qVKylF/O1vf3vuuefeeOMNX1/f3r17s7VqQ0Elo0aNohLanEbjhx9++F+LIklJSdSaj4+Pv79/3bp1t2/fLqi3Kaa4IR9qxtHRMTw8nJVv3LiRbUi9olecv2HU2mH109LS6N0SHBzMKqt1jEpsbGyoKfZ0y5YttIthw4axp2J6X3R597KysqjOwoULWYX+/fsPHDiQLat1jyxZssTFxYUNC70cq1ev1t5E7U0rpjGqnNpIKh6v2htS8d3LGhe/3GfPnhU0j0hx5NkqxQNRKzcrc8x4AACgDQEVAHQwx7l/+PDh5s2bOzg4vPLKK5Rh6Co2MjJSWskQUCkbUEadMGFCly5dKJJlZGQIhps5LVu2nDx5Mqs2ZswYaofdgKVVrHDr1q2U5dgyv8x9+PBhz549Z8yYwctp1+w+28GDB6k/KSkptPzn0/t4lAkDAgKmTJnC6xcbUBW3pb5RZp4+fTpbtWPHDi8vL/E9NMqQvGU5FlDj4+Mpq/Ct2P1bjaGg3tLosftvFNiqV68uuTEoGDpGeT4wMJCtotays7M12tTeUHh2iAgNrySgHj9+nI7d3d2dvWE02qH66enpzZo1mzVrFmtNo2NUn9oJCgpiq3r06OHn56cWUI1/0dW6d+zYMXot6Fi+++47SlwUWdlate4ROkfovceW27VrxwKqxiZqb1oxtVGV15GMpKByvJz4Danx7pW83EJxR6Q48myV4oGolZuVOWY8AADQhoAKADqY49zfsGGDp6dn1apVX375ZScnp1q1aq1du1ZayRBQu3btOm/evODg4BEjRvj4+LA/xUxMTKxSpQoLq4Quc+np1atX2dOYmJhffvmlb9++PK7QZS61QOXbt2+nRnbt2sXL58yZw5YFQ2xgtxnpenrfvn10ULNnzx4wYAAPn8YEVMVtL126RD2ki/LYp9zc3I4ePco2EYwLqJQoKMzPnTs3OTmZr9IYCuotdYOVU4Kicvl3zFy8eJHKxR+OFTTb5BQ3FGSJRRJQKQu1b98+JCSkfv367A2j0c6iRYtatGgxcuRIXqjRMaq/dOlSajY3N/f06dP0dNKkSWoB1fgXXa17ZMGCBbQ7iqkUVlmJRvcIvY35m4QHVI1N1N60YmqjKqkjH0lB5Xg58RtS490rebmF4o5IceTZKsUDUSs3K3PMeAAAoA0BFQB0MPm5T2GJQildtu7cuZOe0oa0TNGLX9Ry4o/4ki+++KJVq1a0EBkZaW9vz8sfPHhALfCcMGXKlN69ezdu3Jh/OLCtAbXm5+dHkfjMmTO8/Mcff2TLpF+/ftOmTRMMH9qkajNnzly8ePGQIUPoYp3XLzagKm5LF/e2trZ9nhUdHc02EYwLqLSwZ8+eN99808XFhY4uNDRU0BwKcW9Z+YULF3hNhjom3pzRaJNT3FCQJRZJQF22bFnnzp0pGvGkodEOvSX69u1LNfmfkmp0jO133LhxFFNHjRpFw6URUI1/0dW6RyjtUw+7devGSzS6RyZMmPDBBx+wZR5QNTZRe9OKqY2qpI58JAWV4+XEb0iNd6/k5RaKOyLFkWerFA9ErdysTD7jAQBUaviSJACocEx+7rN7LOTcuXPC03ssJD4+XlKzz7MBlbJH9erVhaf3tdLS0lh5QkKC+Clz9uxZBwcH9tlLdpnLyufMmdOpUye2TOX8g4vkpZdeWr58OfWHLsf5N9NQBeMDqtq2qampVZRuYHJGBlSmoKCAQgUdHe1IYyjEvVULqKxjkm+s0WiTU9xQkCUWcUBdsmSJp6dnbGwsPeVJQ6MdSnSCYZwHDRrECjU6xvZ7/vz5pk2bent75+XlaQRU4190te49evSoR48elOuef/55eluyQo3ukQ4dOixYsIAt84CqsYnam1ZMbVQldeQjqXa8nPgNqfHulQdU7SOSjzxbVjsQtXKzMvmMBwBQqWnPiqaCgAoAOpj83H/48GGdOnXostXf33/FihW9e/euYvi9Gfn3c1LqGzduXG5ubk5OzqlTp1q3bj1gwADB8OlEusQfPXo0LVBUGDx4cPfu3QVDDONfMbpnzx6KcOwrQPm1fmFh4ciRI7t06cLqUDld8rIrb8pRTk5OdCV95coV6g+7YUWJzsvLy/iAqrFtr169KB7cu3dPMPT/wIED/M9lBeMCKuUE/iVAhw8ftrOzo4NVGwrBuIBKevbsGRAQwAaKEkt6erpGm2LyDQVZYhEH1Hr16rGkJDybNNTaYS9ZdnZ2gwYN1qxZI6i/7qw+2+/UqVPpTUULGgFV14uu2L1p06bRu5EKDx065OrqGhcXJ2h2b//+/Y6OjvzPPnlA1dhE7U0rpjGqnOJIahwvI3lDqr175QFV+4jkI89XKR6IWrlZmXzGAwCo1LRnRVNBQAUAHUp57hdk5qSsCM9L/9+vsAiGfPXSSy9VeerFF19U+5IkVsHGxoauU0eMGMF/zeX8+fNt2rShoOvh4UEXxBcvXhQMfyxHQZeSQ4sWLaicf1EqXea6uLi4ubnVrFmTLpf5rdq2hh9Z9fHxadKkCVUICQlh5ZRtnJ2dW7ZsSeUTJ04UB1TWDqH0W7VqVbZMl9r29vYfffSRxrYUbPr161etWrXmzZtTN3x9fcW/wGFMQKVBc3d3Z1+aSgvLli1jaxWHQjA6oF69etXf35861qxZM2r2jz/+ENTbFFPcUCOgUmvsG4aEZ5OGWjv8/mFERASNGPsaW7WOyZOSRkDV9aLLu7dv377q1avzn+QNDg6m15T9nxHF7u3YscPWgL1biJ2dHe3r119/VdtEUH/TimmMKqc2kmrHy0jekGrvXvmwC5pHpDjybJXigaiVm1UpZzwAAAujPSuaCgIqAOhQ4nP/VlTc4UFfbPN4IyPypGQVc/v27YSEBPEviOpF183i3zsVDLebkpOTU1JSNH69k2OX1/n5+XRJzX/UlMnIyEhKShLf5NS2e/fuoUOHsmWNbSnG0CEr/j6nBsoDGzZsEAyfLKV0QY2zHxcVkw+FLllZWYmJieIvFhaMa1NxwxLQ1Y4xHVNTshe9NN3bvHlzYGCgaP0TFJ5ZdGdKc0QlpnG8inS9e+VHpDHyFUqJZzwAAIukPSuaCgIqAOig99wvyMxJWrhxp8+ATTZ+m6t2U0unFYHi/Z+SiY6OFv99nalQLlq9enXVqlUTZT+OCiVjwhfdSPv37589e7akcObMmYqfGrBgZT/yJaN3xgMAsGz4kiQAqHCMP/dvRcUd+vuUMOfuW6r7h9p23FrDvyKnUxIUFBQRESEtrUjOnTv37rvvhoWFSVdASVX8F91SVZaRN37Gk64DAICSQkAFAB2KPfdnTf5i5cCxYV69t9TwD7XrTCWVIp0CAMgVO+MFBweHhISw32QGAACTQEAFAB2KPfc3OHahf8WPMMeuCd/8fHbmSlpmnwzBMpaxjOVKsbzp2dlM/qBLnbCwsFOnTgkAAGAiCKgAoEOx5/6syV+sem14aPUem+w6sQu48NpvhHu8jjuoAFB5BQcHf/ksKqHrnLVr19KlDv/NJwAAKD0EVADQwfhz/+a+mL1dRobaP/mU79bqPZFRAaDyCgkJoZltfsDI75+ikrCwMJrrTp06xX7QFQDA4rGPmZgbAioA6KD33C/IzImfvGRbrddp1WbnV5FRAaAyioqKomnte4dX9j5FJRRNk5KSKJ1W5F/KAQAwIe3rQFNBQAUAHUp87t/cF3PgtQkav4MKAFDBaU+AAAAWr2ymQQRUANChlOd+QWZOyorwvPRb0hUAABWe9gQIAGDxymYaREAFAB1w7gOA1dKeAAEALF7ZTIMIqACgA859ALBaZfPtIAAAFVbZTIMIqACgA859AAAAADAfBFQA0AHnPgAAAACYDwIqAOiAcx8AAAAAzAcBFQB0wLkPAAAAAOaDgAoAOuDcBwCrVTbfDgIAUGGVzTSIgAoAOuDcBwCrpT0BAgBYvLKZBhFQpQoKCqRFAPCUBZ/7AADatCdAAACLVzbTYIULqEePHp02bVpgYOBXX32VkZEhXf3Uw4cPf/7559GjR48YMWLhwoVZWVnSGnqEh4e//vrrXl5eDg4OEyZMkK4GgKfMd+4DAFRw2hMgAIDFK5tpsGIF1Pnz59vY2FSpUsXFxYX+rVOnTnJysrSSIGRnZ/v5+TVt2jQ4OHjRokWvvvpqvXr1zp07J61nnB9++KFu3bobN268efPm48ePpasBQMRM5z4AQMWnPQECAFi8spkGK1BAvX79ur29PeXS8PBwCooBAQG0/Je//EVaTxACAwMpnd69e5c9LSoqGjhwYOvWrWnhzp07f8oUFhaymgUFBbGxsXFxcbwkNzfX1dU1JibmpEF+fj4rJ5RX79+/f/v27YiIiNTUVF5O6GlkZCRFYh5oHz16RDviHw++desWtcyWc3Jybty4wZYFpW0ZaoE6cOTIEb6h9rEw1Mm8vDy2fO/evWvXrvFV8h1pNyjvgGBoX7GyfCRZZcURE3eSRpjaYeOsVi5hZDU6zOTkZDpkqsALJf0nDx48YOUabSo2pXbIauPPqQ2LoPQaMZIO0C7ELdMhUDnfRLFjgqE/4gOnPvBVipuwsaId8TNLkTnOfQCASqFsvh0EAKDCKptpsAIF1D179lQxoEQnGG5s0rKtra04LwmGy25HR8dVq1aJCxMTE6kyXdBPnTq1lYGzs7O3tzdbprVUh1JogwYN2rZtSyUvvPDC6dOnqTAqKopqNm7c+MUXX/T19aVNjh07xtqkmkOHDm3YsGG3bt2ozvz581n58OHDGzVq1KtXL1rVvn37zMxMwRCSR4wY8eabb7Ir/j59+ixcuJAWLl++/Pzzz2/cuFFjW8HQf4rcLVq0oH15enru3r2bCjWOhaNOssbT0tKaNGkSHBzMyhV3pNGgYgdY+7wmOXv2rKAykqyy4ojxTpJRo0bRK8XeGGrlEsZUS0pKopfPx8fH39+/bt2627dvZ+WS/tM7Jzw8nJWrtanYlMYhK46/mNqwKL5GglIHsrKyqA57R5H+/fsPHDiQLat1jCxZssTFxYUduJOT0+rVq7U34WPl6upKy/TWfdrSM8xx7gMAAAAAMBUooJ46dYoF1EOHDglPYwMRX3OT48ePU+GZM2fEhaRGjRr8Cp507Nhx3bp1/OmjR49atmw5efJk9nTMmDGvvPIKpUrqIbX20UcfsfLPP/+cctrDhw8Fw/U6Xb7fuXOHlg8ePOjg4JCSkkLL/K4au807ZcoU9pR2QU8HDx5M5Syg3rhxg1r7v//7P1ZBbVvqRqdOnaZPn85W7dixw8vLS3y/S3IsYiwgpaenN2vWbNasWbxccUecpEGNDlD7kl2rjSSrrDhiPMXRa0ctu7u7SwKqpFyi2Gq09w4dOgQGBrKbitTD7Oxsvq24/9Q9SUCVtKnYlPYhK46/mNqwKL5Gih2ghWPHjlFupN5+9913FFbZH11rdIzQCdizZ0+23K5dOxZQNTbhY0Lvf9pwxowZrI6EOc59AAAAAACmAgVUukqmy2KKi3QhTtfQLJ0SCq7ianSJT4VXr14VF5Lnn39efP9KksHYLVb+rUuUEFgjrDX+l66ZmZk8EtP1+pw5c3gLdIn/ww8/CIZ+7tu3j45u9uzZAwYMoCzK6+Tn5zdv3nz06NFUSCNALQQFBfG1gsq2ly5dop1ST2KfcnNzO3r0KN9KO6AuWrSoRYsWI0eOFJcr7oiTNKjRAXlAVRtJVllxxFjyocTVvn37kJCQ+vXriwOqvFyi2GoXL16kPlBKFBcy2gFV3qZiU9qHrDj+YmrDovgaKXaAWbBgAfWTzg5+k1+jY2TevHn8decBVWMT6iedQTExMdu3b/fx8dm1axerI2GOcx8AAAAAgKlAAVUwfHx3xowZFFN79+49adKkKgY3b94U16EwSYVRUVHiwsLCQjs7u59++omXSDJYZGSkvb09f/rgwQNqhC70T548SQu0X77Kyclpz549guF6/ccff+Tl/fr1mzZtmmD4gOXLL788c+bMxYsXDxkyhHbE61CvPDw8/Pz8HA0oHtCFvvgv+hS3pWRoa2vb51nR0dF8K+2ASjvq27cvRRd2j45R3BEnaVCjA/KAqjaSgvqIsTS4bNmyzp07UyqTBFR5uUSx1aj/4i6JaQdUeZuKTWkfsuL4i6kNi+JrpNgB5tq1a7Svbt268RKNjpEJEyZ88MEHbJkHVI1N2hrQS09vYOqY/EMKjJnOfQAAAAAAoaIFVLHPP/+cLp3pQlm6QhAaN248duxYccmaNWvospt/ZlKQZTB2YyotLY09TUhIYE+zs7NpgX8D8PXr1/lTuljnn3olL7300vLly1NSUijL8cxJFXj2y8vLa9q0Ke2UgkqjRo3effddKnzvvfdGjx7NKqhtm5qaSjtV/H4dRjugst/FGTp06KBBg1ih2o44SYMaHZAHVLWRZJXlI8bKlyxZ4unpGRsbS0/FAVWxXKLYaqz/ku8fYjQCqmKbik1pH7J8/CUUh0XtNVLsgGD4aG6PHj0oxz7//PNLly5lhRodIx06dFiwYAFb5gFVY5O2Tz/iS+bMmdOpUye2LFEG5z4AQMVUNt8OAgBQYZXNNFixAirFzokTJ37zzTeU62xsbOgKnt3MlNi8ebOjo+PatWvZ384dOXKkbt26kyZNEteRZDCqSdfolBVpga71Bw8e3L17d7aqT58+tDsqpFWjRo2iy3T253+0QLmFxTZKNU5OTnQdf+XKlSpP/wL2woULXl5ePPt98sknAwYM4G2yP4i9ffs29Y2Ng8a2vXr1onjDbuRSNw4cOED9YasE2bGI8VBBSbtBgwYU1AXNHTHyBtU6IA+oGiOpOGKsvF69evwHZsUBVbFcwphqPXv2DAgIYF+oS6mPf0RWI6CqtSlvSvuQ5eMvoTgsGq+RvAO0MG3atNatW1PhoUOHXF1d4+LiBM3XYv/+/XSO8P9lwwOqxib8WAoLC0eOHNmlSxdWLmGmcx8AoOLTngABACxe2UyD5RNQCzJzUlaE56XfkpQPHz68ylONGzfesWOHpAK3YcMGb29vd3d3ihnVqlWbMWOG5Ic65Bns/Pnzbdq0qVOnjoeHB12jX7x4kZWnpqb6+flRIa1q9fSLagXD9fr48eN9fHyaNGni4uISEhLCyikJOzs7t2zZksopTrNcERUVVbt27evXr7M6PKCSbdu28Q/6Km5LKIT069ePDqR58+Y1a9b09fUV//6H/Fg48V2viIgI2pZ9+arajhh5g2odkAdUQX0k1UaMyqky/+IicUBVLJcwptrVq1f9/f2p/82aNaN3xR9//MHKNQKqWpuKTWkcsuL4i6kNi9prJO/Avn37qlevTn1gFYKDg+llYt9urdgxOnFsDdyesrOzo339+uuvapsIhn5S96gyHQWl1vj4eFYuUcpzHwCg8tKeAAEALF7ZTINlHVBvRcUd+ceX22q9kRF5UrKKuX379rlz565cuSJdIVNUVHTp0qXExET+66PGoCTGY6TYjRs3+OceGZZt8vPz6YKe/fINl5GRkZSUJL7JaTyNbSlyJCQkqP0po14aO1KjqwPykdQYsbKRlZVF7wfxFyCXmGJT8kM2hsawaLxGih1QI+nY5s2bAwMDReufGDZsGAvnTMmORSjFuQ8AUNlpT4AAABavbKbBMgqoBZk5SQs3/vbi4FDbjmH2XZIXhz67RUWkePMQNGDEFJX9sOzfv3/27NmSwpkzZ0ZGRkoKS0DvuQ8AYDG0J0AAAItXNtOg2QMqu2W61a3XHx2Gb/d6M9TGL/Gbn6UbVEhBQUERERHSUlCHEVNkYcNi/LkvXQcAUMmVzbeDAABUWGUzDZoroM6a/MXKgWM3+/T7peFfKZpudupOhZUonQKAomLP/eDg4JCQEMkPQQEAAAAAGMNcAXW9U1f6N8y9F/3LH8cC51DspgUWvrGMZSxXxmXtx/fffx8WFnbq1CkBAAAAAEAncwXUWZO/+LH/6LBar4U5deNXrpudut08ECOtDQCVUHBw8JfPohJKp2vXrt27d29SUpJ0AwAAAACA4pgroIr/BvXgWxPDHLuG2ndBRgWwGCEhId8/i0rCwsLorD916hT73VcAAAAAAF3MHlBZSUFmTsJXa7bXe2uTjV+YfWdkVIDKLioqasPwz/aKUAlF06SkJEqn5fI7QwAAZsX+2AEAwGqVzTRYRgGVYzdUt9TwV/sdVACoLLTnAQAAC4NJDwCsXNlMg2UdUJmCzJyUFeF56bekKwCg8tCeBwAALAwmPQCwcmUzDZZPQAUAC6A9DwAAWBhMegBg5cpmGkRABYAS0p4HAAAsDCY9ALByZTMNIqACQAmVzR/KAwBUEJj0AMDKlc00iIAKAAAAAAAAFUIJAyoAAAAAAACAaSGgAgAAAAAAQIWAgAoAAAAAAAAVgmkCatn8vSwAVCg48QHAqmDSAwArVzbToGkCqvZ3JgGARcKJDwBWBZMeAFi5spkGEVABoIRw4gOAVcGkBwBWrmymQQRUgMqtMOvuzYiT5fKgE19eaNZHYXau9PgBwPqU17xXlpMepjsAqIDKJvQhoAJUbjcN10xW8siIPCk9fgCwPtYw72G6A4AKaFOZhD7TBNSy+XtZAJBjF2qJC7+9GbHJgh+JC77FFRsAMJY972G6A4AKq2xCn2kCKgCUF3ahRtc0RUWnLPhx48AmXLEBAGPZ8x6mOwCwcgoBNSEhITU1VVySmZkZExNTVFQkLgSAisCyL9T4g12x/b5gZXR0dGxsbHJyclpaWk5OjnQ4AMAKWPa8h+kOAMrF5cuXYwzi4uKuXLkij368wokTJ1JSUh4+fCipYCoKAbVjx46BgYHiknXr1lWpUuXBgwfiQgCoCCz7Qo0/2BVb2Mzvdu7cuX///uPHj9NF261bt6TDAQBWwLLnPUx3AFAuhg0bZm9v7+Hh4e7ubmtr6+bmNmrUqJs3b8orEDs7Oy8vry1btogaMBkEVIDKzbIv1PiDXbGtmzJ3w4YN4eHhdNEWGxublpYmHQ4AsAKWPe9hugOAckH5s0ePHmw5Pz9/z549rVq1atiw4e3bt+UVKBhSfHVycsrLy2MlJqQ7oJ45c2bIkCEvv/xyp06dRowYcf36dV7t119/7du3r6+v76BBg06e/O/fTsyZM2f9+vVLly7t0qXLhx9+yCsDgElY9oUaf7ArtrWfB//000900bZz587o6OjLly9LhwMArIBlz3uY7gCgXIjzJ0NBz9XV9fPPP1esEBERQQkxOTmZl5iKvoBKYbpOnTpjx449cODArl27pk+fzvu0atWqatWqffXVV/v27fvyyy+dnZ3j4+Op/LXXXqtfv/5f//rX0NBQ2kTcLACUnmVfqPEHu2IL/fJbumJbs2ZNWFjY/v37zTEnAkDFZ9nzHqY7ACgX8oBKBg8e7Ovry5bFFW7cuDFkyJBGjRoVFhbyyqaiL6BeuHCBFq5duyZeSx4+fOjp6bl48WJeMnz48Pfee08wBNQXX3xR/le2AGASln2hxh+4YgMAzrLnPUx3AFAuFAPqlClTPDw82DJVqCJSr169EydOPFvdNPQFVAqirVu3btiw4aeffrp3716emM+cOUMVxowZ8+WXX86YMWP69Om9e/du06aNYAioY8eOFbcGACZk2Rdq/IErNgDgLHvew3QHAOVCMaBS6PPy8mLLVIFy4mWD2NhYinienp5Xrlx5dgsTUAior7/++uDBg8UlS5cudXR0fPz4MS3n5uYuX7787bffrlGjRuPGjVNSUqjw2LFjFFDpAOaJ/Pvf/xYMAfWzzz4TtwYAJqR9oXbp0q/Hj/8sfty9e0hereI8li6dsnLlDHk5rtgAgNOY9/ikFxOz/uLFXwoLY+R1jH/MnRu0ceNX8nKTPDDdAUCFohhQ+/Tp06VLF7YsqVBUVOTh4TFjxgxeYioKAXX06NGtWrUSl4wfP75FixbiEsGQVKmQQqlg+KFUW1tbxS8aRkAFMCuNCzV6DBvWn85NV1dn/jh8+Cd5tZI9xo17Z968j+XlpXkMHfqXwMC35eW4YgMATmPeo0nP3t7Ow8ONHnZ2tl5eHps3fyOvZuTjtdf8PvtsuLzcJA9MdwBQocgD6okTJ+zs7BYuXKhY4fHjx7Vq1Zo8eTIvMRWFgBoTE2NjY/P111/n5+fTjn///fdq1aotWLCAVqWmptJTdiuVQukLL7zw1Vdfsa3ef//9xo0bsy9GIufPn9+7d6+AgApgZhoXakWGa7UePdrJy03y6Nu3+yefDJGXl+aBKzYAKJbGvCee9PLyjo4aFeDk5Hj//hF5TWMeCKgAYD0of/r5+V24cCEpKenQoUOzZs2qUaNGz549KRJKKhDKrh999JGtrW1UVNSzzZiAQkAly5YtY7/QWrVqVQcHh7Fjx7I/Nz19+rSXl5ejo+Pzzz9Pq95+++379++zTe7duzdixAh7e3tK0q6urvTv8uXLBQRUADPTuFArUg+os2eP//nn4B9++LxLl7YffvhXKgkJmdmzZ/u2bZu9/37f5OQd4prr189dvnxa585tXn31FarGypcunfLcc57NmvkMHtybHteu7aHCX375nlKrr2/zQYPeOHFiQ7GN0OPx45PffPP/OnRo1a2b708/zcIVGwAUS2Pek0x6Bw6sqFKlSlLSdvb0P/9ZRRX8/FrT1Ddp0vt37hzkNXftWtK//6tt2jTt1asDzW+sUBxQb9zYN2LEgE2bvmZPMd0BgIUZ9vQ7kOzs7GrXru3v70+R8OHDh/IKhLIrhdVt27aJGjAZ5YAqGL6YNyEhgRIpJU/Jqj///JPKMzMzJeXk7t27tCo1NfXRo0fSdQBgBhoXakWGa7Xu3V/OyzvKHvn5x1g5XXXVr1/nr3/tSRdbv/66eNGiT52dqy5Y8K/ffvthwIAetWvXvH07gtd8/nmvd9/ts337wuDgCba2tnv3Lqfy48d/bteuJV2fhYXNp0dOThRdh1Wr5jJv3sdU4csvR1ODcXGh2o3Q46uvPqle3ZUuB+lqjxJy3boeuGIDAG0a8544oF6/vnfIkLcaNapfUHCclXz33SSKiHv2/Ds8fEHXrr40PbLyFSumOzjYf/FF4B9/LKN4yUMpD6gJCduonY8/fu/RoxNFhv+jh+kOAMBMVAMqAFQKGhdqRYZrNf7/ughFSlZOl1Avvtj48eOTtFxYGOPuXmP+/IlsFT318ak3ffooXpO2YjXp0adP5/Hj32HL4o/40laenu7ffz+Z73r48AHvvfemdiN01Ui7XrLkc1aenR3l5lYNV2wAoE1j3pNMevXq1Y6JWS+vRo+MjANU4fz5bTQR1arlNnPmGHkdFlD/859VtWvXpGTLCjHdAQCYFQIqQOWmcaFWZLhW69ix9aVLv7JHWtofrJwuocaOHcSWk5N30FXa6dNhfKsPP/xrv37deU3xH5rSVgEBvdiyOKDS5lWe/NbU37/8cvSMGR9Rvu3du3ObNk21G0lK2k5bJSRs46toK1yxAYA2jXlPPOmdOrWRZhsKk6mpv7G1N2/unzLlQ3//Di+91KRVqxdsbGx27VoSH/9k+uK3QMUPmrvat3+xenVX/sneIkx3AGB98jPu5F74k+Ze9qBlKpFWMh0EVIDKTeNCrUj251j8If7DqtjYTXTZdPHiL3zthAmD6QJOXpMe48e/89e/9mTL4oB69OjaKk9+a2rY3LlB/KH4d1ziRtiur1zZzVcNHOiPKzYA0KYx70kmvcePT3p4uFGMZE87dGj1l790+/33pRRKz53b6uBgv23bd8eOPfmxd/Hf3vMHzV3duvm6ujovWvQpL8R0BwCW7VFe/q1DcYnfrTv0t3/ubvX3sKpdaVKSP6ic1lKdxO/WUn3aStpQSZUqoBY9fHTzwImUH3ecnbmS/qVlKpFWAgBz0rhQK5Jdq/GH+BIqJyfKxsYmPHwBX/vqq6+MHDlQXrPo2YBKC0FB77Ll27cjbG1t1X7OQa2R7Ownu/7ttx/4qmbNfHDFBgDaNOY9yaT36NGJWrXcJk8eRsvp6XspIiYmhrNVtEBPKaBmZkbS9CW+R8ofbO46eDCkRg1X/qtamO4AwCI9Lij8c9uBQwP/yRPprqb9ot7+KO7TaYmLvr20einNTuxBy1Ry6pPPowaMpDr/zauOXSJ7j7kUsv3R/QfSpnUqYUAtzM49PXXZNvfXJEl6m7v/6alLaa10AwAwD40LtSLZtRp/SC6h3nvvzbZtm9HVGy2vWzeHrqKOHl2rWFMcUD/++L0uXdpev7737t1Djx+ffP/9vo0b1+cfkzt3busffywrtpFBg97w82tNF4i0vGjRp3TZhys2ANCmMe+xL+lNTt5Bj5iY9R99FECzyn/+s4pW3bsX7eBg/+9/f1FkiIu9e3emuY4CKj0dMuStF17wPnNmc5HhT0xZ/SLR3EVTort7jS+/HM3KMd0BgCUpuHM3/rPF22r1oslnR/3esZOmXtvxU/7tKPkEpfigmlSftqJtqYWtNXrEf/Y9tSndjdFKElDvnEjY6f3frLy79cDjI/955stZ9C8ts8Kd3m9RHelmAGAGGhdqRUYH1Bs39lE1ulqqWbO6i4vTggX/Uqspvti6ePGXrl19qT77opHc3MMjRgywt7erVcvN1dWZ/l22bGqxjVy7tsfXtzldNdLFH1XDZ94AoFga8574S5Jq1HClQLh165MIyh6LF3/m6OhQt65HtWou3377T5qpWEDNyYl65503KK/Wrl2TKoj/CJ/PXbGxmzw93T/99MnNWEx3AGAxrobtpWgaatfxyJAJN/ZvLHr6HW8leTw+SS1QO9TaVnf/cyHbcnJy+M+oGk93QKXkudnlVZo693Udcvv4fz8nwx9UQuW0drNLd2RUgDKgcaGm93H16u74+LB796Llq4x/0HUeNXL58q6HD5/8GIMxj8ePTyYkbEtJ+d8fwcofuGIDAK40815W1n9Onw7Lzla4M3DrVkRcXCj7LIkxD0x3AFDZxX+2hCacvZ0GZ5/dJZ+OSvyg1qhNavng6FlpaWl6Y6q+gFqYncvunR794OPHhcrTMZXTWqqz/bk3r6ek6u0QAOhSmgu1SvTAFRsAcJY972G6A4CycS54Fc02MaMnPX5YirumKg9qk1qm9vcHzb18+fKtW7eMj4T6AurpL/7N7p0+KoiR94M/aC27j7p/1Jc0pZYgNwOAkSz7Qo0/cMUGAJxlz3uY7gCgDGTFXwhz6BI9eJx8FjLhg9oPte98aMN2msSMz6g6AmrRw0fbar1Ok6b8k73yB9Whmpvdeh48EBEbG6s3NwOAkSz7Qo0/cMUGAJxlz3uY7gCgDBwZOmNrzZ7GfxNSyR7UPu0l/LVR0dHRxmdUHQE1I/LJfw92vxQg37fiY/dLb1P9bXO+p4mVZdScnBxpowBQOpZ9ocYfuGIDAM6y5z1MdwBgbo8LCre4vhoz5n9fimm+B+0l1Knbzm3hxmdUHQE1ZcWTm6IxH02S71jxEfPRP6n++g8/27p1K8uoaWlpxXYIAHSx7As1/sAVGwBwlj3vYboDAHO7c/wczTMX/r1IPgWZ/EF7oX1tnLvot99+O378uDH3LHUE1PNzf6LW46fMkO9Y8UE1qf7Pf/943bp14eHhBw8epOm12A4BgC6WfaHGH7hiAwDOsuc9THcAYG7Ji8Nonjk//yv5FGTyB+3lyT3LDz5ls9nZs2dv3bol7dCzdATUp3dQjb0XzO+grl69esOGDRSaY2Nji+0QAOhi2Rdq/IErNgDgLHvew3QHAOaWuv53mmfiPjf2vmNpHrQX2tfa0V/8/PPPO3fuPH78eFpamrRDz9IRUJ/+Derf5TtWfLC/Qd04fT4FVHYTNTo6utgOAYAuln2hxh+4YgMAzrLnPUx3AGBuN/Yeo3nmP/1Hyacgkz9oL7SvNf+avXbt2q1btx48ePDy5cvSDj1LR0Atwbf4hlZ/ddP6DRRQje8QAOjCLtQSF3xL1zQW/KADxBUbADCWPe9hugMAc2Oz6JZqr5bBt/jSXp7cQf18rvETmo6AKvzvd1DfN/J3UEMHBoWGhmKGBTAfNsVYyQNXbAAgWMe8h+kOAMyHzaJh9p3K4HdQaS+bzBpQC7Nzd3r3o30cHvrx48IT8k7Qg8qPfvDxk7nV47XQ1WsRUAHMis7KjMiT7BGxdO32uUs2Tp+/9vNgi3ysWbaC5pMNGzbs3LkzOjoan8gAsE7WMO9hugMA82EB9Vjgky8Mihk96fHDk/JMV8oHtUkt872YMaCSOycSNrs8uVG72+89+Wd9qYTdO91UtWvovMWUTjdt2oSP+AKUjdjYWDrtw8PD6ZpmjYWiQ6MD3P/0l6ukQwAAVsaC5z1MdwBgJiyg3jiwKf6z6bSwt9Pg7LO75CGzxA9qjdqklqn9G4a/qzdvQBUMGXVb3TfZR1B2NBsQ8VbggZ7/ONg38LdWT74V6b/3Tg3plND0ii9JAigbdMIfP36czvydO3eGWSg6NDpAOsxkw289S4cAAKyMBc97mO4AwEx4QKUweSV05bZa/qF2HY8MmXBj/8aix6W4m/r4JLVA7VBr1Ca1XPT0i9/MHlDJ9ZTUvSNnhhr+5vWZh2v30ICP2Sd72e1Tiqb4mRmAspGWlkbnPJ1o0dHR+y0UHRodIB0mHSx+VxkALHjew3QHAGYiDqj0yM88FP/Z9K01niS7HfV7x06aem3HT8Z/fxLVpPq0FW1LLVA0pdaoTba27AIqTZTU9MEDEVtnLdr4yru0V/p347T5m9Zv4NGUQilLp+z26cGDB2kTzLAA5kPn161bt+hS5vLly8kWig6NDpAOkw42Pz9fOgTw/9u7+9gmzjuA47SssI5tqioVqVq1aX9smrT+sxclDFizrawMVg3ajJYpmpp2FVCRUaClIIa2KX3ZmtJ2LKXVgOK8uOHsxEQ4xWkKYXHeSBxCoHi4c9OYbCSUOGJ1OooHBO9nP8vVbzV2nDlv349O1vny3HPHP5a+3J0NTDNT+HOPjzsA/ydRgaqWK/9ue3/PKw335JtnzVeXHg9+7d6mnz16/PEt7/5pe49hp/5l47IuW05s2ta0fJWMUYPNsxc037fqH5a9V/2O8GkzF6jyQSkfmurBj8oHg0++GpevNYSUhKh1VacWi6V+5AkKPmEBAAAAYLzEDdRPSvVi+0CT2bW9qDl3de03l0t5fnK3bNgi2+WvMkZGynjZK3aqjAZqIPR/lh6PR7Kz5qGtctR9uet27969a9euv4TIirwNf75fBnP5FAAAAADGUeJAjV0unbcPuev0K6iyLltih8VdMhqofr/f6/VKdh5e87QctTrvqfLycjnw3hBZkbc2m81ut6s6lcFcPgUAAACAcZRqoKazZDRQA6FG9fl8R594SY4qmVpTU1NdXV0ZIivyNvzhfuoUAAAAAMbXVA5U5cS21+Sojqd2dHR0tLS02ENkRd7yZD8AAAAATByTOFDl1J2/333d5cgP1shR5bVx3fNRS+xgmTP6MAAAAACAjJjEgSo9qcV8X1Oai8wZfRgAAAAAQEZM4kDlCioAAAAATCWTOFDDDQ0NDQ4O9vf39/b2dkeSEJWjymt7jKiROplEppIJZVqeUAUAAACAzCBQ4yBQAQAAACDzCNQ4CFQAAAAAyDwCNQ4CFQAAAAAyj0CNg0AFAAAAgMwjUOMgUAEAAAAg86ZIoCbgDP1cqrxGZ2h3d/RQAAAAAMD4IVABAAAAABMCgQoAAAAAmBC8TSck384dqojtyTFf5CjBQN36BwIVAAAAABDto+5/Sr71lLwa25NjvshR5FilRTsIVAAAAABAtOH/XK6ak9OxZlNsT4754lj9pOmzC0r2vE6gAgAAAADiOJr3W8stP/QPNsUm5RguMn/lF3O0hQ+VlJQQqAAAAACAOP518j3zTfNbHyyIrcoxXJp+/pg2c57phZ0EKgAAAADgU/3tWYNE3NFfbRy+0hnblmkuMmfboxtlfm3lRk3TDAZDWVmZxWKx2+0ejyf6VCIRqAAAAAAw7Zzc/Ip03MFvr/jQeTA2Mke9yGy276yQmU3LCqROjUajBKq8Wq1Wh8PR19cXfR6RCFQAAAAAmI5aXjSYvpCj3Zh95L7VH9TvuzacxtXU4U6ZoSH3MZlN+/xdpg1PqzoNv7/X6XR6vd7ok4hEoAIAAADAdOTxeNrq7dUrNmo3L5Smq5p799G1m88eKEn++5NkpIxvK9hSNXdR8J5eSdNlBaa9ZXqdGgyGiooKm83mcDjkcD6fL/okIqUbqFc/9tu+8YCciry6nacJVAAAAACYFLxer9vtbm1ttVZa9q36TcWdudpnvhfszBlZ+7+85O0f57eufvLUC0U9hp0fHNHUIuvO7UVtv97y9uJHqr+yRA3WbppvysrTnnjG9EaFpKkUaXl5uaSpBKqsW61WOYQcSA7n9/ujTyJSWoF6bXi4+f7N/zunGVl1iwvec7sJVAAAAACY+CQX9Ua12WzSlmV79pZufa585fo3vrty35d+IuWp517EItvvWKJl52m/3GQqfEkrM0qIGo1G6VJ11VR9MZJMKNMmX6eBNAO1a8PLwba+ddHZ6gZ5lfW/Pvw7AhUAAAAAJgW9UR0OR11dncViUdc/S0tLVWeW/PnV0ud3lG15Ti2yXlr8WkkkNVKRHWV3mUSmkgll2uTrNJBOoLqLzVKk5tkLBxo65W3foTbTrAWypWlbsStEAjXJkwAAAAAAjAvVqB6Pp6ury26322y26upqs9msXxQtKysrTUgGyDAZLLvIjrK7TCJTyYQybfJ1Ghh1oPZZG00z52k3ZJ8x1gZC/6ShoaH2F0tki3ZjdmtxuQpU2Zj8qQAAAAAAMk+qzefz9fX1ud1uqcrW1tb6+nqJTKvVKrVpsVjMCckAGSaDZRfZUXaXSWQqmVCmTSkJRxOoF465qubkaDOynIV7AiN1Ojg4KEXasO6PwcuqN3//eFWtvJWNNCoAAAAATHwqU71er16qDodDatNut9cnJANkmAzWu1QmSTVNlZQD9WLvuQO3L5UKbc8vVFtUnfb390uRulyut5ZtkL9abrvndGObbFSNGjkHAAAAAGDiCo9Vj8fjTkgGpBOl4VIL1MsfflR75y+CX4Z099rhy1cCofNWddrb26sC9fQp55vz8mXMga/n9jhdqlHTPEsAAAAAwJSXQqBKkUqXSnlKo0qpBkZu7tXrVPf3rnekTmWkbf4jZ97vkQHc6AsAAAAASCyFQG3PLwxeF7196cXec4GwR0/1OpWV/hGejpP75y6W8YdzN8l2HkYFAAAAACSWbKA6C/dIbVbNyblwzBUIq1P16KlepypE1Z/cbzVVfu4u2atxfZH+JxoVAAAAABBXUoF6xlir3ZBtmjmvz9oYiKxTdfk0vE79IWqAs/SA+jWazh1GGhUAAAAAkMD1A3WgodM8e6E2I8tdbA4kUadqL33YsWeDl15NsxacMtlihwEAAAAAoFwnUH0uz/5bF0lhdm14OZB0nSr64OZVzwRvD77lR+8eaf20wQAAAACAaS5RoF46f6Hmq8ulLZvv33xteDgQ9pOn+hcjJQ5O1ajegYHDSx+Xefbf8dPu46f0XaJHAwAAAACmsUSB2vLAVqnKQ9kPX/04GJ/+yJ88VZdPE9Spohp14Gz/wW/lyWx1S9fpF10T7AUAAAAAmG4SBeql8xekUeU1EO8nT1VnJq5TRe175h3XoXvXu9qPp7QvAAAAAGCaSBSo4dTNvVF1mvxV0NFdfQUAAAAATB8pB6oyiudIw59fVQhUAAAAAIAutUDtHzGKtlQ3+qY5CQAAAABgqkotUHWjC0u9UdOcBwAAAAAw9fwXkvqaeAOAaBcAAAAASUVORK5CYII=;" vertex="1" parent="1">
          <mxGeometry x="156.5" y="640" width="1248" height="502" as="geometry" />
        </mxCell>
      </root>
    </mxGraphModel>
  </diagram>
</mxfile>
